<svg width="122" height="34" viewBox="0 0 122 34" fill="none" xmlns="http://www.w3.org/2000/svg">
<path d="M33 1H1V33H33V1Z" fill="#3A3A3A"/>
<path d="M33 1H1V33H33V1Z" stroke="#272727"/>
<path d="M12.5761 13.6084V10.0692C12.5761 9.58059 12.9725 9.18445 13.4617 9.18445H24.9632C25.4525 9.18445 25.8488 9.58059 25.8488 10.0692V21.5715C25.8488 22.0602 25.4525 22.4564 24.9632 22.4564H21.4246V25.9893C21.4246 26.4813 21.0272 26.8803 20.5337 26.8803H9.04369C8.8073 26.8805 8.58019 26.7868 8.41297 26.6197C8.24574 26.4525 8.15181 26.2258 8.15284 25.9893L8.1549 14.4994C8.1549 14.0075 8.55233 13.6084 9.04575 13.6084H12.5761ZM14.3464 13.6084H20.5337C21.0251 13.6084 21.4246 14.0057 21.4246 14.4994V20.6868H24.0785V10.954H14.3464V13.6084ZM9.92522 15.378L9.92214 25.1107H19.6553V15.378H9.92522Z" fill="#5E5E5E"/>
<path d="M77 1H45V33H77V1Z" fill="#3A3A3A"/>
<path d="M77 1H45V33H77V1Z" stroke="#272727"/>
<path d="M56.5761 13.6084V10.0692C56.5761 9.58059 56.9725 9.18445 57.4617 9.18445H68.9632C69.4525 9.18445 69.8488 9.58059 69.8488 10.0692V21.5715C69.8488 22.0602 69.4525 22.4564 68.9632 22.4564H65.4246V25.9893C65.4246 26.4813 65.0272 26.8803 64.5337 26.8803H53.0437C52.8073 26.8805 52.5802 26.7868 52.413 26.6197C52.2457 26.4525 52.1518 26.2258 52.1528 25.9893L52.1549 14.4994C52.1549 14.0075 52.5523 13.6084 53.0457 13.6084H56.5761ZM58.3464 13.6084H64.5337C65.0251 13.6084 65.4246 14.0057 65.4246 14.4994V20.6868H68.0785V10.954H58.3464V13.6084ZM53.9252 15.378L53.9221 25.1107H63.6553V15.378H53.9252Z" fill="#5E5E5E"/>
<path d="M121 1H89V33H121V1Z" fill="#3A3A3A"/>
<path d="M121 1H89V33H121V1Z" stroke="#272727"/>
<path d="M100.576 13.6084V10.0692C100.576 9.58059 100.972 9.18445 101.462 9.18445H112.963C113.452 9.18445 113.849 9.58059 113.849 10.0692V21.5715C113.849 22.0602 113.452 22.4564 112.963 22.4564H109.425V25.9893C109.425 26.4813 109.027 26.8803 108.534 26.8803H97.0437C96.8073 26.8805 96.5802 26.7868 96.413 26.6197C96.2457 26.4525 96.1518 26.2258 96.1528 25.9893L96.1549 14.4994C96.1549 14.0075 96.5523 13.6084 97.0457 13.6084H100.576ZM102.346 13.6084H108.534C109.025 13.6084 109.425 14.0057 109.425 14.4994V20.6868H112.079V10.954H102.346V13.6084ZM97.9252 15.378L97.9221 25.1107H107.655V15.378H97.9252Z" fill="#5E5E5E"/>
</svg>
