<svg width="634" height="102" viewBox="0 0 634 102" fill="none" xmlns="http://www.w3.org/2000/svg">
<path d="M351.857 91.9304V93.7218C350.283 93.1653 348.536 93.4076 347.173 94.3717C345.81 95.3358 345 96.9018 345 98.5715L343.286 98.5707C343.285 96.4495 344.266 94.4476 345.943 93.1484C347.62 91.8493 349.803 91.4001 351.857 91.9304ZM350.143 90.8572C347.301 90.8572 345 88.5558 345 85.7144C345 82.873 347.301 80.5715 350.143 80.5715C352.984 80.5715 355.286 82.873 355.286 85.7144C355.286 88.5558 352.984 90.8572 350.143 90.8572ZM350.143 89.143C352.037 89.143 353.571 87.6087 353.571 85.7144C353.571 83.8201 352.037 82.2858 350.143 82.2858C348.249 82.2858 346.714 83.8201 346.714 85.7144C346.714 87.6087 348.249 89.143 350.143 89.143Z" fill="white"/>
<path d="M354.649 93.2129L356.217 94.7797H354V96.494H356.217L354.649 98.0609L355.862 99.2737L359.498 95.6369L355.862 92L354.649 93.2129Z" fill="white"/>
<path d="M317.857 91.9304V93.7218C316.283 93.1653 314.536 93.4076 313.173 94.3717C311.81 95.3358 311 96.9018 311 98.5715L309.286 98.5707C309.285 96.4495 310.266 94.4476 311.943 93.1484C313.62 91.8493 315.803 91.4001 317.857 91.9304ZM316.143 90.8572C313.301 90.8572 311 88.5558 311 85.7144C311 82.873 313.301 80.5715 316.143 80.5715C318.984 80.5715 321.286 82.873 321.286 85.7144C321.286 88.5558 318.984 90.8572 316.143 90.8572ZM316.143 89.143C318.037 89.143 319.571 87.6087 319.571 85.7144C319.571 83.8201 318.037 82.2858 316.143 82.2858C314.249 82.2858 312.714 83.8201 312.714 85.7144C312.714 87.6087 314.249 89.143 316.143 89.143Z" fill="white"/>
<path d="M320.5 92.5H323.25C323.94 92.5 324.5 93.0596 324.5 93.75V93.75C324.5 94.4404 323.94 95 323.25 95V95C322.56 95 322 95.5596 322 96.25V96.5M322 97.5V98.5" stroke="white" stroke-width="1.5"/>
<path d="M283.857 91.9304V93.7218C282.283 93.1653 280.536 93.4076 279.173 94.3717C277.81 95.3358 277 96.9018 277 98.5715L275.286 98.5707C275.285 96.4495 276.266 94.4476 277.943 93.1484C279.62 91.8493 281.803 91.4001 283.857 91.9304ZM282.143 90.8572C279.301 90.8572 277 88.5558 277 85.7144C277 82.873 279.301 80.5715 282.143 80.5715C284.984 80.5715 287.286 82.873 287.286 85.7144C287.286 88.5558 284.984 90.8572 282.143 90.8572ZM282.143 89.143C284.037 89.143 285.571 87.6087 285.571 85.7144C285.571 83.8201 284.037 82.2858 282.143 82.2858C280.249 82.2858 278.714 83.8201 278.714 85.7144C278.714 87.6087 280.249 89.143 282.143 89.143Z" fill="white"/>
<path d="M285.75 94.7796L287.798 94.7798V92.7769L289.5 92.7828V94.7857L291.498 94.7798V96.494L289.5 96.5V98.3188L287.798 98.3128V96.4941L285.75 96.494V94.7796Z" fill="white"/>
<path d="M634 4L582.853 3.99999C566.94 3.99999 551.679 10.3214 540.426 21.5736L511.574 50.4264C500.321 61.6786 485.06 68 469.147 68L350.5 68" stroke="url(#paint0_linear_1642_35335)" stroke-width="8"/>
<path d="M290.979 62.2C290.259 62.2 289.592 62.1533 288.979 62.06C288.379 61.9667 287.752 61.8067 287.099 61.58C286.392 61.34 285.839 60.9533 285.439 60.42C285.039 59.8733 284.839 59.2133 284.839 58.44V52.76C284.839 52.12 284.979 51.5467 285.259 51.04C285.552 50.5333 285.925 50.1333 286.379 49.84C286.779 49.5867 287.272 49.3733 287.859 49.2C288.445 49.0267 288.992 48.92 289.499 48.88C289.965 48.84 290.459 48.82 290.979 48.82C291.592 48.82 292.125 48.8467 292.579 48.9C293.032 48.94 293.539 49.0333 294.099 49.18C294.739 49.3667 295.265 49.5933 295.679 49.86C296.092 50.1267 296.439 50.5 296.719 50.98C297.012 51.4733 297.159 52.0667 297.159 52.76V58.44C297.159 59.16 296.965 59.78 296.579 60.3C296.205 60.82 295.685 61.2133 295.019 61.48C293.819 61.96 292.472 62.2 290.979 62.2ZM291.019 59.98C291.459 59.98 291.825 59.9667 292.119 59.94C292.425 59.9 292.739 59.8333 293.059 59.74C293.379 59.6467 293.619 59.4933 293.779 59.28C293.952 59.0533 294.039 58.7733 294.039 58.44V52.74C294.039 52.1267 293.792 51.6933 293.299 51.44C292.805 51.1733 292.039 51.04 290.999 51.04C289.959 51.04 289.192 51.1667 288.699 51.42C288.205 51.6733 287.959 52.1133 287.959 52.74V58.44C287.959 58.7733 288.045 59.0533 288.219 59.28C288.392 59.4933 288.645 59.6467 288.979 59.74C289.299 59.8333 289.605 59.9 289.899 59.94C290.205 59.9667 290.579 59.98 291.019 59.98ZM302.67 51.24H298.67V49.02H309.77V51.24H305.79V62H302.67V51.24ZM311.564 49.02H314.684V54.22H320.204V49.02H323.324V62H320.204V56.44H314.684V62H311.564V49.02ZM326.115 49.02H336.015V51.24H329.235V54.22H335.355V56.44H329.235V59.78H336.215V62H326.115V49.02ZM338.322 49.02H344.162C345.895 49.02 347.149 49.2333 347.922 49.66C348.695 50.0733 349.082 50.7733 349.082 51.76V54.04C349.082 54.8 348.809 55.4 348.262 55.84C347.729 56.2667 347.015 56.54 346.122 56.66L349.882 62H346.282L342.882 56.9H341.442V62H338.322V49.02ZM344.122 54.84C344.855 54.84 345.355 54.7467 345.622 54.56C345.889 54.36 346.022 53.98 346.022 53.42V52.5C346.022 52.02 345.875 51.6933 345.582 51.52C345.302 51.3333 344.815 51.24 344.122 51.24H341.442V54.84H344.122Z" fill="url(#paint1_linear_1642_35335)"/>
<path d="M0 4L51.1472 4.00001C67.0602 4.00001 82.3214 10.3214 93.5736 21.5736L122.426 50.4264C133.679 61.6786 148.94 68 164.853 68L283.5 68" stroke="url(#paint2_linear_1642_35335)" stroke-width="8"/>
<defs>
<linearGradient id="paint0_linear_1642_35335" x1="617" y1="68.5" x2="366" y2="68.4999" gradientUnits="userSpaceOnUse">
<stop stop-opacity="0"/>
<stop offset="0.279809" stop-color="#5C6064"/>
<stop offset="0.764284" stop-color="#001D24"/>
<stop offset="1" stop-opacity="0"/>
</linearGradient>
<linearGradient id="paint1_linear_1642_35335" x1="319.324" y1="50.5" x2="319.324" y2="62" gradientUnits="userSpaceOnUse">
<stop stop-color="white"/>
<stop offset="1" stop-color="#999999"/>
</linearGradient>
<linearGradient id="paint2_linear_1642_35335" x1="17" y1="68.5" x2="268" y2="68.5" gradientUnits="userSpaceOnUse">
<stop stop-opacity="0"/>
<stop offset="0.279809" stop-color="#5C6064"/>
<stop offset="0.764284" stop-color="#001D24"/>
<stop offset="1" stop-opacity="0"/>
</linearGradient>
</defs>
</svg>
