<svg width="733" height="102" viewBox="0 0 733 102" fill="none" xmlns="http://www.w3.org/2000/svg">
<path d="M367.357 13.9304V15.7218C365.783 15.1653 364.036 15.4076 362.673 16.3717C361.31 17.3358 360.5 18.9018 360.5 20.5715L358.786 20.5707C358.785 18.4495 359.766 16.4476 361.443 15.1484C363.12 13.8493 365.303 13.4001 367.357 13.9304ZM365.643 12.8572C362.801 12.8572 360.5 10.5558 360.5 7.71439C360.5 4.87296 362.801 2.57153 365.643 2.57153C368.484 2.57153 370.786 4.87296 370.786 7.71439C370.786 10.5558 368.484 12.8572 365.643 12.8572ZM365.643 11.143C367.537 11.143 369.071 9.60868 369.071 7.71439C369.071 5.8201 367.537 4.28582 365.643 4.28582C363.749 4.28582 362.214 5.8201 362.214 7.71439C362.214 9.60868 363.749 11.143 365.643 11.143Z" fill="white"/>
<path d="M374.349 15.2129L372.781 16.7797H374.998V18.494H372.781L374.349 20.0609L373.136 21.2737L369.5 17.6369L373.136 14L374.349 15.2129Z" fill="white"/>
<path d="M0 98L51.1472 98C67.0602 98 82.3214 91.6786 93.5736 80.4264L122.426 51.5736C133.679 40.3214 148.94 34 164.853 34L283.5 34" stroke="url(#paint0_linear_1642_35323)" stroke-width="8"/>
<path d="M283.769 42.02H287.009L289.529 51.5L292.049 42.02H294.949L297.669 51.5L299.989 42.02H303.149L298.989 55H295.909L293.429 45.58L290.869 55H287.789L283.769 42.02ZM304.716 42.02H314.616V44.24H307.836V47.22H313.956V49.44H307.836V52.78H314.816V55H304.716V42.02ZM316.923 42.02H320.043V52.78H326.423V55H316.923V42.02ZM334.265 55.2C333.678 55.2 333.152 55.1733 332.685 55.12C332.232 55.0667 331.732 54.9667 331.185 54.82C330.572 54.66 330.065 54.4533 329.665 54.2C329.265 53.9333 328.932 53.5667 328.665 53.1C328.385 52.6333 328.245 52.08 328.245 51.44V45.74C328.245 43.1267 330.252 41.82 334.265 41.82C335.292 41.82 336.665 41.9667 338.385 42.26V44.6C336.838 44.2267 335.478 44.04 334.305 44.04C333.812 44.04 333.425 44.0533 333.145 44.08C332.878 44.1067 332.598 44.1733 332.305 44.28C331.678 44.4933 331.365 44.9667 331.365 45.7V51.22C331.365 52.3933 332.438 52.98 334.585 52.98C335.505 52.98 336.798 52.7867 338.465 52.4V54.76C337.038 55.0533 335.638 55.2 334.265 55.2ZM346.319 55.2C345.599 55.2 344.932 55.1533 344.319 55.06C343.719 54.9667 343.092 54.8067 342.439 54.58C341.732 54.34 341.179 53.9533 340.779 53.42C340.379 52.8733 340.179 52.2133 340.179 51.44V45.76C340.179 45.12 340.319 44.5467 340.599 44.04C340.892 43.5333 341.265 43.1333 341.719 42.84C342.119 42.5867 342.612 42.3733 343.199 42.2C343.785 42.0267 344.332 41.92 344.839 41.88C345.305 41.84 345.799 41.82 346.319 41.82C346.932 41.82 347.465 41.8467 347.919 41.9C348.372 41.94 348.879 42.0333 349.439 42.18C350.079 42.3667 350.605 42.5933 351.019 42.86C351.432 43.1267 351.779 43.5 352.059 43.98C352.352 44.4733 352.499 45.0667 352.499 45.76V51.44C352.499 52.16 352.305 52.78 351.919 53.3C351.545 53.82 351.025 54.2133 350.359 54.48C349.159 54.96 347.812 55.2 346.319 55.2ZM346.359 52.98C346.799 52.98 347.165 52.9667 347.459 52.94C347.765 52.9 348.079 52.8333 348.399 52.74C348.719 52.6467 348.959 52.4933 349.119 52.28C349.292 52.0533 349.379 51.7733 349.379 51.44V45.74C349.379 45.1267 349.132 44.6933 348.639 44.44C348.145 44.1733 347.379 44.04 346.339 44.04C345.299 44.04 344.532 44.1667 344.039 44.42C343.545 44.6733 343.299 45.1133 343.299 45.74V51.44C343.299 51.7733 343.385 52.0533 343.559 52.28C343.732 52.4933 343.985 52.6467 344.319 52.74C344.639 52.8333 344.945 52.9 345.239 52.94C345.545 52.9667 345.919 52.98 346.359 52.98ZM355.009 42.02H359.449L362.649 51.3L365.809 42.02H369.989V55H367.169V45.4H367.109L363.829 55H361.329L357.949 45.4H357.869V55H355.009V42.02ZM372.783 42.02H382.683V44.24H375.903V47.22H382.023V49.44H375.903V52.78H382.883V55H372.783V42.02ZM389.599 42.02H392.719V52.78H399.099V55H389.599V42.02ZM407.061 55.2C406.341 55.2 405.674 55.1533 405.061 55.06C404.461 54.9667 403.834 54.8067 403.181 54.58C402.474 54.34 401.921 53.9533 401.521 53.42C401.121 52.8733 400.921 52.2133 400.921 51.44V45.76C400.921 45.12 401.061 44.5467 401.341 44.04C401.634 43.5333 402.007 43.1333 402.461 42.84C402.861 42.5867 403.354 42.3733 403.941 42.2C404.527 42.0267 405.074 41.92 405.581 41.88C406.047 41.84 406.541 41.82 407.061 41.82C407.674 41.82 408.207 41.8467 408.661 41.9C409.114 41.94 409.621 42.0333 410.181 42.18C410.821 42.3667 411.347 42.5933 411.761 42.86C412.174 43.1267 412.521 43.5 412.801 43.98C413.094 44.4733 413.241 45.0667 413.241 45.76V51.44C413.241 52.16 413.047 52.78 412.661 53.3C412.287 53.82 411.767 54.2133 411.101 54.48C409.901 54.96 408.554 55.2 407.061 55.2ZM407.101 52.98C407.541 52.98 407.907 52.9667 408.201 52.94C408.507 52.9 408.821 52.8333 409.141 52.74C409.461 52.6467 409.701 52.4933 409.861 52.28C410.034 52.0533 410.121 51.7733 410.121 51.44V45.74C410.121 45.1267 409.874 44.6933 409.381 44.44C408.887 44.1733 408.121 44.04 407.081 44.04C406.041 44.04 405.274 44.1667 404.781 44.42C404.287 44.6733 404.041 45.1133 404.041 45.74V51.44C404.041 51.7733 404.127 52.0533 404.301 52.28C404.474 52.4933 404.727 52.6467 405.061 52.74C405.381 52.8333 405.687 52.9 405.981 52.94C406.287 52.9667 406.661 52.98 407.101 52.98ZM421.932 55.2C421.185 55.2 420.525 55.1667 419.952 55.1C419.378 55.0333 418.812 54.92 418.252 54.76C417.652 54.6 417.158 54.3867 416.772 54.12C416.385 53.84 416.072 53.48 415.832 53.04C415.592 52.5733 415.472 52.04 415.472 51.44V46.04C415.472 45.3867 415.605 44.8 415.872 44.28C416.138 43.7467 416.498 43.3267 416.952 43.02C417.378 42.74 417.885 42.5 418.472 42.3C419.072 42.1 419.658 41.9667 420.232 41.9C420.712 41.8467 421.292 41.82 421.972 41.82C423.812 41.82 425.572 41.96 427.252 42.24V44.6C425.705 44.2267 423.945 44.04 421.972 44.04C419.718 44.04 418.592 44.6933 418.592 46V51.22C418.592 51.86 418.892 52.3133 419.492 52.58C420.105 52.8467 421.025 52.98 422.252 52.98C422.905 52.98 423.605 52.88 424.352 52.68V49.66H422.232V47.62H427.332V54.36C426.665 54.6 425.812 54.8 424.772 54.96C423.745 55.12 422.798 55.2 421.932 55.2ZM429.853 42.02H432.973V55H429.853V42.02ZM435.771 42.02H438.931L445.211 50.88V42.02H447.991V55H444.831L438.551 46V55H435.771V42.02Z" fill="url(#paint1_linear_1642_35323)"/>
<path d="M733 98L681.853 98C665.94 98 650.679 91.6786 639.426 80.4264L610.574 51.5736C599.321 40.3214 584.06 34 568.147 34L449.5 34" stroke="url(#paint2_linear_1642_35323)" stroke-width="8"/>
<defs>
<linearGradient id="paint0_linear_1642_35323" x1="17" y1="33.5" x2="268" y2="33.5" gradientUnits="userSpaceOnUse">
<stop stop-opacity="0"/>
<stop offset="0.279809" stop-color="#5C6064"/>
<stop offset="0.764284" stop-color="#001D24"/>
<stop offset="1" stop-opacity="0"/>
</linearGradient>
<linearGradient id="paint1_linear_1642_35323" x1="372.257" y1="43.5" x2="372.257" y2="55" gradientUnits="userSpaceOnUse">
<stop stop-color="white"/>
<stop offset="1" stop-color="#999999"/>
</linearGradient>
<linearGradient id="paint2_linear_1642_35323" x1="716" y1="33.5" x2="465" y2="33.5" gradientUnits="userSpaceOnUse">
<stop stop-opacity="0"/>
<stop offset="0.279809" stop-color="#5C6064"/>
<stop offset="0.764284" stop-color="#001D24"/>
<stop offset="1" stop-opacity="0"/>
</linearGradient>
</defs>
</svg>
