<svg width="257" height="34" viewBox="0 0 257 34" fill="none" xmlns="http://www.w3.org/2000/svg">
<path d="M7 7.5C8.3807 7.5 9.5 8.6193 9.5 10V13H8.5V10C8.5 9.20565 7.88084 8.54905 7.08789 8.5025L7 8.5C6.20564 8.5 5.54906 9.11915 5.5025 9.9121L5.5 10V13H4.5V10C4.5 8.6193 5.61929 7.5 7 7.5ZM7 3C8.10455 3 9 3.89543 9 5C9 6.10457 8.10455 7 7 7C5.89543 7 5 6.10457 5 5C5 3.89543 5.89543 3 7 3ZM7 4C6.44772 4 6 4.44772 6 5C6 5.55229 6.44772 6 7 6C7.5523 6 8 5.55229 8 5C8 4.44772 7.5523 4 7 4Z" fill="white"/>
<path d="M20.6554 3.432H22.0594V9.228C22.0594 10.212 21.8554 10.932 21.4474 11.412C20.9914 11.916 20.2714 12.168 19.2754 12.168C18.4114 12.168 17.7514 11.928 17.3074 11.448C16.8514 10.968 16.6234 10.308 16.6234 9.468V9.192H18.0274V9.456C18.0274 10.44 18.4474 10.932 19.2994 10.932C19.7674 10.932 20.1154 10.788 20.3314 10.512C20.5474 10.236 20.6554 9.792 20.6554 9.18V3.432ZM24.5444 3.264C24.8084 3.264 25.0364 3.348 25.2164 3.516C25.3844 3.684 25.4804 3.9 25.4804 4.164C25.4804 4.428 25.3844 4.656 25.2044 4.824C25.0244 4.992 24.8084 5.076 24.5444 5.076C24.2804 5.076 24.0644 4.992 23.8844 4.824C23.7044 4.644 23.6204 4.428 23.6204 4.164C23.6204 3.9 23.7044 3.684 23.8844 3.516C24.0644 3.348 24.2804 3.264 24.5444 3.264ZM23.8604 5.796H25.2284V12H23.8604V5.796ZM29.9731 5.628C30.8851 5.628 31.5331 5.964 31.9291 6.636C32.2171 6.252 32.5171 5.988 32.8291 5.844C33.1051 5.7 33.4531 5.628 33.8731 5.628C34.5091 5.628 35.0371 5.832 35.4691 6.264C35.8771 6.696 36.0931 7.248 36.0931 7.932V12H34.7251V8.172C34.7251 7.68 34.6171 7.32 34.4131 7.104C34.1971 6.876 33.8611 6.768 33.3811 6.768C33.0451 6.768 32.7691 6.888 32.5411 7.152C32.3011 7.404 32.1931 7.752 32.1931 8.208V12H30.8251V8.184C30.8251 7.236 30.4171 6.768 29.6011 6.768C29.2051 6.768 28.8931 6.912 28.6531 7.224C28.4131 7.512 28.2931 7.872 28.2931 8.28V12H26.9251V5.796H28.2931V6.432C28.8091 5.892 29.3731 5.628 29.9731 5.628ZM40.5785 5.628C41.4905 5.628 42.1385 5.964 42.5345 6.636C42.8225 6.252 43.1225 5.988 43.4345 5.844C43.7105 5.7 44.0585 5.628 44.4785 5.628C45.1145 5.628 45.6425 5.832 46.0745 6.264C46.4825 6.696 46.6985 7.248 46.6985 7.932V12H45.3305V8.172C45.3305 7.68 45.2225 7.32 45.0185 7.104C44.8025 6.876 44.4665 6.768 43.9865 6.768C43.6505 6.768 43.3745 6.888 43.1465 7.152C42.9065 7.404 42.7985 7.752 42.7985 8.208V12H41.4305V8.184C41.4305 7.236 41.0225 6.768 40.2065 6.768C39.8105 6.768 39.4985 6.912 39.2585 7.224C39.0185 7.512 38.8985 7.872 38.8985 8.28V12H37.5305V5.796H38.8985V6.432C39.4145 5.892 39.9785 5.628 40.5785 5.628ZM47.476 5.796H48.964L50.608 10.212L52.18 5.796H53.668L50.308 14.376H48.844L49.936 11.856L47.476 5.796ZM53.7924 3.432H55.3764L56.9844 9.948H57.0324L58.7244 3.432H60.1764L61.8684 9.948H61.9164L63.5244 3.432H65.1084L62.6364 12H61.1484L59.4804 5.556H59.4324L57.7524 12H56.2524L53.7924 3.432ZM68.7699 5.628C69.7059 5.628 70.4619 5.928 71.0379 6.552C71.6019 7.164 71.8899 7.944 71.8899 8.904C71.8899 9.852 71.6019 10.632 71.0499 11.232C70.4739 11.856 69.7059 12.168 68.7699 12.168C67.8219 12.168 67.0659 11.856 66.4899 11.232C65.9259 10.632 65.6499 9.852 65.6499 8.904C65.6499 7.944 65.9259 7.164 66.5019 6.552C67.0659 5.928 67.8219 5.628 68.7699 5.628ZM68.7699 6.744C68.1939 6.744 67.7619 6.96 67.4499 7.416C67.1859 7.8 67.0539 8.304 67.0539 8.904C67.0539 9.504 67.1859 9.996 67.4499 10.38C67.7619 10.824 68.1939 11.052 68.7699 11.052C69.3339 11.052 69.7779 10.824 70.0899 10.38C70.3539 9.984 70.4979 9.492 70.4979 8.904C70.4979 8.304 70.3539 7.8 70.0899 7.416C69.7779 6.96 69.3339 6.744 68.7699 6.744ZM76.2892 5.628C77.8372 5.628 78.6172 6.468 78.6172 8.172V12H77.2492V8.292C77.2492 7.272 76.7812 6.768 75.8452 6.768C75.5092 6.768 75.2092 6.888 74.9572 7.128C74.6692 7.392 74.5012 7.776 74.4532 8.268V12H73.0852V5.796H74.4532V6.516C74.6932 6.228 74.9692 6 75.2692 5.856C75.5812 5.7 75.9172 5.628 76.2892 5.628ZM82.6379 5.628C83.4059 5.628 84.0179 5.928 84.4739 6.552V5.796H85.8419V11.604C85.8419 13.56 84.8699 14.544 82.9259 14.544C82.0499 14.544 81.3899 14.376 80.9339 14.064C80.4779 13.728 80.1899 13.224 80.0699 12.528H81.4379C81.5099 12.876 81.6539 13.116 81.8819 13.26C82.0979 13.392 82.4459 13.464 82.9259 13.464C83.9579 13.464 84.4739 12.912 84.4739 11.808V10.896C84.0179 11.532 83.4059 11.856 82.6379 11.856C81.7979 11.856 81.1139 11.568 80.5979 11.016C80.0699 10.452 79.8179 9.696 79.8179 8.76C79.8179 7.824 80.0699 7.068 80.5979 6.492C81.1139 5.916 81.7979 5.628 82.6379 5.628ZM82.8539 6.732C82.3379 6.732 81.9419 6.912 81.6539 7.272C81.3659 7.62 81.2219 8.112 81.2219 8.76C81.2219 9.348 81.3299 9.804 81.5579 10.14C81.8219 10.536 82.2419 10.74 82.8419 10.74C83.3699 10.74 83.7779 10.56 84.0659 10.224C84.3419 9.864 84.4859 9.384 84.4859 8.76C84.4859 8.124 84.3419 7.632 84.0659 7.272C83.7779 6.912 83.3699 6.732 82.8539 6.732Z" fill="#A9A9A9"/>
<path d="M12.4811 21.432H14.0771L17.3531 30H15.8531L15.0731 27.852H11.4851L10.7051 30H9.20508L12.4811 21.432ZM11.9051 26.7H14.6531L13.3091 22.944H13.2611L11.9051 26.7ZM22.4856 21.264H23.8536V30H22.5816V29.34C22.1496 29.892 21.5256 30.168 20.7096 30.168C19.7856 30.168 19.0656 29.844 18.5496 29.196C18.0696 28.596 17.8296 27.816 17.8296 26.868C17.8296 25.956 18.0576 25.2 18.5376 24.6C19.0416 23.952 19.7496 23.628 20.6376 23.628C21.3576 23.628 21.9696 23.964 22.4856 24.648V21.264ZM20.9616 24.732C20.3376 24.732 19.8936 24.936 19.6056 25.344C19.3536 25.692 19.2336 26.196 19.2336 26.868C19.2336 27.54 19.3416 28.056 19.5816 28.416C19.8576 28.848 20.3016 29.064 20.9136 29.064C21.4416 29.064 21.8616 28.848 22.1496 28.428C22.4016 28.044 22.5336 27.54 22.5336 26.94V26.844C22.5336 26.184 22.3656 25.656 22.0536 25.272C21.7656 24.912 21.3936 24.732 20.9616 24.732ZM28.3364 23.628C29.2484 23.628 29.8964 23.964 30.2924 24.636C30.5804 24.252 30.8804 23.988 31.1924 23.844C31.4684 23.7 31.8164 23.628 32.2364 23.628C32.8724 23.628 33.4004 23.832 33.8324 24.264C34.2404 24.696 34.4564 25.248 34.4564 25.932V30H33.0884V26.172C33.0884 25.68 32.9804 25.32 32.7764 25.104C32.5604 24.876 32.2244 24.768 31.7444 24.768C31.4084 24.768 31.1324 24.888 30.9044 25.152C30.6644 25.404 30.5564 25.752 30.5564 26.208V30H29.1884V26.184C29.1884 25.236 28.7804 24.768 27.9644 24.768C27.5684 24.768 27.2564 24.912 27.0164 25.224C26.7764 25.512 26.6564 25.872 26.6564 26.28V30H25.2884V23.796H26.6564V24.432C27.1724 23.892 27.7364 23.628 28.3364 23.628ZM36.8178 21.264C37.0818 21.264 37.3098 21.348 37.4898 21.516C37.6578 21.684 37.7538 21.9 37.7538 22.164C37.7538 22.428 37.6578 22.656 37.4778 22.824C37.2978 22.992 37.0818 23.076 36.8178 23.076C36.5538 23.076 36.3378 22.992 36.1578 22.824C35.9778 22.644 35.8938 22.428 35.8938 22.164C35.8938 21.9 35.9778 21.684 36.1578 21.516C36.3378 21.348 36.5538 21.264 36.8178 21.264ZM36.1338 23.796H37.5018V30H36.1338V23.796ZM42.4025 23.628C43.9505 23.628 44.7305 24.468 44.7305 26.172V30H43.3625V26.292C43.3625 25.272 42.8945 24.768 41.9585 24.768C41.6225 24.768 41.3225 24.888 41.0705 25.128C40.7825 25.392 40.6145 25.776 40.5665 26.268V30H39.1985V23.796H40.5665V24.516C40.8065 24.228 41.0825 24 41.3825 23.856C41.6945 23.7 42.0305 23.628 42.4025 23.628ZM47.0952 21.264C47.3592 21.264 47.5872 21.348 47.7672 21.516C47.9352 21.684 48.0312 21.9 48.0312 22.164C48.0312 22.428 47.9352 22.656 47.7552 22.824C47.5752 22.992 47.3592 23.076 47.0952 23.076C46.8312 23.076 46.6152 22.992 46.4352 22.824C46.2552 22.644 46.1712 22.428 46.1712 22.164C46.1712 21.9 46.2552 21.684 46.4352 21.516C46.6152 21.348 46.8312 21.264 47.0952 21.264ZM46.4112 23.796H47.7792V30H46.4112V23.796ZM51.8159 23.628C53.4479 23.628 54.3479 24.276 54.4919 25.596H53.1599C53.0639 25.284 52.9199 25.056 52.7279 24.936C52.5239 24.804 52.2119 24.744 51.7919 24.744C51.4319 24.744 51.1559 24.792 50.9759 24.9C50.7599 25.008 50.6639 25.176 50.6639 25.416C50.6639 25.608 50.8199 25.788 51.1559 25.932C51.3599 26.016 51.7679 26.136 52.3919 26.292C53.0879 26.46 53.6159 26.652 53.9519 26.88C54.4439 27.192 54.6959 27.636 54.6959 28.188C54.6959 29.508 53.7599 30.168 51.8999 30.168C50.1719 30.168 49.2479 29.436 49.1159 27.984H50.4479C50.5199 28.38 50.6639 28.656 50.8679 28.824C51.0719 28.968 51.3959 29.052 51.8519 29.052C52.8119 29.052 53.2919 28.788 53.2919 28.284C53.2919 27.996 53.1119 27.768 52.7519 27.6C52.5599 27.504 52.1519 27.396 51.5279 27.252C50.7959 27.084 50.2799 26.904 49.9799 26.712C49.4999 26.412 49.2599 25.992 49.2599 25.452C49.2599 24.876 49.4879 24.432 49.9679 24.12C50.4359 23.784 51.0479 23.628 51.8159 23.628ZM57.7245 21.792V23.796H59.1045V24.924H57.7245V28.428C57.7245 28.572 57.7485 28.68 57.8205 28.764C57.8925 28.836 57.9885 28.872 58.1325 28.872H58.9485V30H57.9045C57.3645 30 56.9685 29.856 56.7165 29.568C56.4765 29.304 56.3565 28.932 56.3565 28.428V24.924H55.2405V23.796H56.3565V22.356L57.7245 21.792ZM63.0562 23.628C63.3562 23.628 63.6202 23.676 63.8362 23.784V25.152C63.5242 25.056 63.2362 25.02 62.9482 25.02C62.5882 25.02 62.2642 25.152 61.9762 25.44C61.6402 25.764 61.4842 26.184 61.4842 26.712V30H60.1282V23.796H61.4842V24.684C61.6522 24.372 61.8442 24.132 62.0722 23.964C62.3482 23.736 62.6722 23.628 63.0562 23.628ZM67.4365 23.628C68.3485 23.628 69.0325 23.856 69.4645 24.312C69.8485 24.708 70.0405 25.284 70.0405 26.04V30H68.7685V29.184C68.5285 29.496 68.2285 29.724 67.8805 29.892C67.4845 30.072 67.0165 30.168 66.4765 30.168C65.8285 30.168 65.3245 30 64.9525 29.676C64.5685 29.34 64.3765 28.92 64.3765 28.404C64.3765 27.708 64.6405 27.168 65.1925 26.796C65.6965 26.436 66.4045 26.244 67.3165 26.22L68.6725 26.184V25.944C68.6725 25.128 68.2285 24.732 67.3405 24.732C66.9565 24.732 66.6565 24.792 66.4285 24.936C66.1645 25.092 65.9845 25.332 65.9125 25.656L64.5565 25.548C64.6885 24.864 65.0245 24.36 65.5645 24.048C66.0205 23.76 66.6445 23.628 67.4365 23.628ZM68.6725 27.168L67.4125 27.204C66.3205 27.228 65.7805 27.612 65.7805 28.356C65.7805 28.572 65.8645 28.752 66.0565 28.896C66.2485 29.04 66.4885 29.124 66.7885 29.124C67.3165 29.124 67.7605 28.968 68.1205 28.668C68.4805 28.356 68.6725 27.96 68.6725 27.48V27.168ZM73.4277 21.792V23.796H74.8077V24.924H73.4277V28.428C73.4277 28.572 73.4517 28.68 73.5237 28.764C73.5957 28.836 73.6917 28.872 73.8357 28.872H74.6517V30H73.6077C73.0677 30 72.6717 29.856 72.4197 29.568C72.1797 29.304 72.0597 28.932 72.0597 28.428V24.924H70.9437V23.796H72.0597V22.356L73.4277 21.792ZM78.7113 23.628C79.6473 23.628 80.4033 23.928 80.9793 24.552C81.5433 25.164 81.8313 25.944 81.8313 26.904C81.8313 27.852 81.5433 28.632 80.9913 29.232C80.4153 29.856 79.6473 30.168 78.7113 30.168C77.7633 30.168 77.0073 29.856 76.4313 29.232C75.8673 28.632 75.5913 27.852 75.5913 26.904C75.5913 25.944 75.8673 25.164 76.4433 24.552C77.0073 23.928 77.7633 23.628 78.7113 23.628ZM78.7113 24.744C78.1353 24.744 77.7033 24.96 77.3913 25.416C77.1273 25.8 76.9953 26.304 76.9953 26.904C76.9953 27.504 77.1273 27.996 77.3913 28.38C77.7033 28.824 78.1353 29.052 78.7113 29.052C79.2753 29.052 79.7193 28.824 80.0313 28.38C80.2953 27.984 80.4393 27.492 80.4393 26.904C80.4393 26.304 80.2953 25.8 80.0313 25.416C79.7193 24.96 79.2753 24.744 78.7113 24.744ZM85.9546 23.628C86.2546 23.628 86.5186 23.676 86.7346 23.784V25.152C86.4226 25.056 86.1346 25.02 85.8466 25.02C85.4866 25.02 85.1626 25.152 84.8746 25.44C84.5386 25.764 84.3826 26.184 84.3826 26.712V30H83.0266V23.796H84.3826V24.684C84.5506 24.372 84.7426 24.132 84.9706 23.964C85.2466 23.736 85.5706 23.628 85.9546 23.628Z" fill="#454545"/>
<rect x="93.5" y="0.5" width="31" height="31" fill="#3A3A3A"/>
<rect x="93.5" y="0.5" width="31" height="31" stroke="#272727"/>
<g clip-path="url(#clip0_1641_33832)">
<path d="M107.4 10.3994H106.6V11.1994H107.4V10.3994Z" fill="#7B3926"/>
<path d="M107.4 16.7998H106.6V17.5998H107.4V16.7998Z" fill="#A6775E"/>
<path d="M107.4 7.2002H106.6V8.0002H107.4V7.2002Z" fill="#532417"/>
<path d="M107.4 13.5996H106.6V14.3996H107.4V13.5996Z" fill="#7B3926"/>
<path d="M107.4 20H106.6V20.8H107.4V20Z" fill="#532417"/>
<path d="M107.4 24H106.6V24.8H107.4V24Z" fill="#532417"/>
<path d="M107.4 5.59961H106.6V6.39961H107.4V5.59961Z" fill="#7B3926"/>
<path d="M107.4 12H106.6V12.8H107.4V12Z" fill="#7B3926"/>
<path d="M107.4 18.3994H106.6V19.1994H107.4V18.3994Z" fill="#7B3926"/>
<path d="M107.4 8.7998H106.6V9.5998H107.4V8.7998Z" fill="#532417"/>
<path d="M107.4 15.2002H106.6V16.0002H107.4V15.2002Z" fill="#D3A791"/>
<path d="M107.4 21.5996H106.6V22.3996H107.4V21.5996Z" fill="#7B3926"/>
<path d="M107.4 25.5996H106.6V26.3996H107.4V25.5996Z" fill="#8E624A"/>
<path d="M107.4 11.2002H106.6V12.0002H107.4V11.2002Z" fill="#7B3926"/>
<path d="M107.4 17.5996H106.6V18.3996H107.4V17.5996Z" fill="#A6775E"/>
<path d="M107.4 8H106.6V8.8H107.4V8Z" fill="#532417"/>
<path d="M107.4 14.3994H106.6V15.1994H107.4V14.3994Z" fill="#D3A791"/>
<path d="M107.4 20.7998H106.6V21.5998H107.4V20.7998Z" fill="#532417"/>
<path d="M107.4 24.7998H106.6V25.5998H107.4V24.7998Z" fill="#A6775E"/>
<path d="M107.4 6.39941H106.6V7.19941H107.4V6.39941Z" fill="#532417"/>
<path d="M107.4 12.7998H106.6V13.5998H107.4V12.7998Z" fill="#7B3926"/>
<path d="M107.4 19.2002H106.6V20.0002H107.4V19.2002Z" fill="#532417"/>
<path d="M107.4 23.2002H106.6V24.0002H107.4V23.2002Z" fill="#A6775E"/>
<path d="M107.4 9.59961H106.6V10.3996H107.4V9.59961Z" fill="#D3A791"/>
<path d="M107.4 16H106.6V16.8H107.4V16Z" fill="#8E624A"/>
<path d="M107.4 22.3994H106.6V23.1994H107.4V22.3994Z" fill="#A6775E"/>
<path d="M107.4 26.3994H106.6V27.1994H107.4V26.3994Z" fill="#7B3926"/>
<path d="M102.6 10.3994H101.8V11.1994H102.6V10.3994Z" fill="#7B3926"/>
<path d="M102.6 16.7998H101.8V17.5998H102.6V16.7998Z" fill="#7B3926"/>
<path d="M102.6 7.2002H101.8V8.0002H102.6V7.2002Z" fill="#D3A791"/>
<path d="M102.6 13.5996H101.8V14.3996H102.6V13.5996Z" fill="#7B3926"/>
<path d="M102.6 20H101.8V20.8H102.6V20Z" fill="#A6775E"/>
<path d="M102.6 24H101.8V24.8H102.6V24Z" fill="#8E624A"/>
<path d="M102.6 12H101.8V12.8H102.6V12Z" fill="#7B3926"/>
<path d="M102.6 18.3994H101.8V19.1994H102.6V18.3994Z" fill="#8E624A"/>
<path d="M102.6 8.7998H101.8V9.5998H102.6V8.7998Z" fill="#D3A791"/>
<path d="M102.6 15.2002H101.8V16.0002H102.6V15.2002Z" fill="#7B3926"/>
<path d="M102.6 21.5996H101.8V22.3996H102.6V21.5996Z" fill="#532417"/>
<path d="M102.6 25.5996H101.8V26.3996H102.6V25.5996Z" fill="#7B3926"/>
<path d="M102.6 11.2002H101.8V12.0002H102.6V11.2002Z" fill="#7B3926"/>
<path d="M102.6 17.5996H101.8V18.3996H102.6V17.5996Z" fill="#8E624A"/>
<path d="M102.6 8H101.8V8.8H102.6V8Z" fill="#D3A791"/>
<path d="M102.6 14.3994H101.8V15.1994H102.6V14.3994Z" fill="#7B3926"/>
<path d="M102.6 20.7998H101.8V21.5998H102.6V20.7998Z" fill="#A6775E"/>
<path d="M102.6 24.7998H101.8V25.5998H102.6V24.7998Z" fill="#8E624A"/>
<path d="M102.6 6.39941H101.8V7.19941H102.6V6.39941Z" fill="#7B3926"/>
<path d="M102.6 12.7998H101.8V13.5998H102.6V12.7998Z" fill="#7B3926"/>
<path d="M102.6 19.2002H101.8V20.0002H102.6V19.2002Z" fill="#A6775E"/>
<path d="M102.6 23.2002H101.8V24.0002H102.6V23.2002Z" fill="#A6775E"/>
<path d="M102.6 9.59961H101.8V10.3996H102.6V9.59961Z" fill="#7B3926"/>
<path d="M102.6 16H101.8V16.8H102.6V16Z" fill="#7B3926"/>
<path d="M102.6 22.3994H101.8V23.1994H102.6V22.3994Z" fill="#A6775E"/>
<path d="M105.8 10.3994H105V11.1994H105.8V10.3994Z" fill="#7B3926"/>
<path d="M105.8 16.7998H105V17.5998H105.8V16.7998Z" fill="#A6775E"/>
<path d="M105.8 7.2002H105V8.0002H105.8V7.2002Z" fill="#BF947E"/>
<path d="M105.8 13.5996H105V14.3996H105.8V13.5996Z" fill="#7B3926"/>
<path d="M105.8 20H105V20.8H105.8V20Z" fill="#532417"/>
<path d="M105.8 24H105V24.8H105.8V24Z" fill="#A6775E"/>
<path d="M105.8 12H105V12.8H105.8V12Z" fill="#7B3926"/>
<path d="M105.8 18.3994H105V19.1994H105.8V18.3994Z" fill="#A6775E"/>
<path d="M105.8 8.7998H105V9.5998H105.8V8.7998Z" fill="#532417"/>
<path d="M105.8 15.2002H105V16.0002H105.8V15.2002Z" fill="#BF947E"/>
<path d="M105.8 21.5996H105V22.3996H105.8V21.5996Z" fill="#A6775E"/>
<path d="M105.8 25.5996H105V26.3996H105.8V25.5996Z" fill="#8E624A"/>
<path d="M105.8 11.2002H105V12.0002H105.8V11.2002Z" fill="#7B3926"/>
<path d="M105.8 17.5996H105V18.3996H105.8V17.5996Z" fill="#A6775E"/>
<path d="M105.8 8H105V8.8H105.8V8Z" fill="#BF947E"/>
<path d="M105.8 14.3994H105V15.1994H105.8V14.3994Z" fill="#D3A791"/>
<path d="M105.8 20.7998H105V21.5998H105.8V20.7998Z" fill="#7B3926"/>
<path d="M105.8 24.7998H105V25.5998H105.8V24.7998Z" fill="#8E624A"/>
<path d="M105.8 6.39941H105V7.19941H105.8V6.39941Z" fill="#7B3926"/>
<path d="M105.8 12.7998H105V13.5998H105.8V12.7998Z" fill="#7B3926"/>
<path d="M105.8 19.2002H105V20.0002H105.8V19.2002Z" fill="#7B3926"/>
<path d="M105.8 23.2002H105V24.0002H105.8V23.2002Z" fill="#532417"/>
<path d="M105.8 9.59961H105V10.3996H105.8V9.59961Z" fill="#D3A791"/>
<path d="M105.8 16H105V16.8H105.8V16Z" fill="#8E624A"/>
<path d="M105.8 22.3994H105V23.1994H105.8V22.3994Z" fill="#A6775E"/>
<path d="M105.8 26.3994H105V27.1994H105.8V26.3994Z" fill="#7B3926"/>
<path d="M101 10.3994H100.2V11.1994H101V10.3994Z" fill="#7B3926"/>
<path d="M101 16.7998H100.2V17.5998H101V16.7998Z" fill="#7B3926"/>
<path d="M101 7.2002H100.2V8.0002H101V7.2002Z" fill="#D3A791"/>
<path d="M101 20H100.2V20.8H101V20Z" fill="#8E624A"/>
<path d="M101 24H100.2V24.8H101V24Z" fill="#7B3926"/>
<path d="M101 5.59961H100.2V6.39961H101V5.59961Z" fill="#7B3926"/>
<path d="M101 12H100.2V12.8H101V12Z" fill="#7B3926"/>
<path d="M101 18.3994H100.2V19.1994H101V18.3994Z" fill="#8E624A"/>
<path d="M101 8.7998H100.2V9.5998H101V8.7998Z" fill="#8E624A"/>
<path d="M101 21.5996H100.2V22.3996H101V21.5996Z" fill="#8E624A"/>
<path d="M101 11.2002H100.2V12.0002H101V11.2002Z" fill="#7B3926"/>
<path d="M101 17.5996H100.2V18.3996H101V17.5996Z" fill="#7B3926"/>
<path d="M101 8H100.2V8.8H101V8Z" fill="#D3A791"/>
<path d="M101 20.7998H100.2V21.5998H101V20.7998Z" fill="#8E624A"/>
<path d="M101 24.7998H100.2V25.5998H101V24.7998Z" fill="#7B3926"/>
<path d="M101 6.39941H100.2V7.19941H101V6.39941Z" fill="#7B3926"/>
<path d="M101 19.2002H100.2V20.0002H101V19.2002Z" fill="#8E624A"/>
<path d="M101 23.2002H100.2V24.0002H101V23.2002Z" fill="#8E624A"/>
<path d="M101 9.59961H100.2V10.3996H101V9.59961Z" fill="#8E624A"/>
<path d="M101 22.3994H100.2V23.1994H101V22.3994Z" fill="#8E624A"/>
<path d="M98.5998 7.2002H97.7998V8.0002H98.5998V7.2002Z" fill="#7B3926"/>
<path d="M98.5998 8.7998H97.7998V9.5998H98.5998V8.7998Z" fill="#7B3926"/>
<path d="M98.5998 8H97.7998V8.8H98.5998V8Z" fill="#7B3926"/>
<path d="M98.5998 6.39941H97.7998V7.19941H98.5998V6.39941Z" fill="#7B3926"/>
<path d="M109 10.3994H108.2V11.1994H109V10.3994Z" fill="#D3A791"/>
<path d="M109 16.7998H108.2V17.5998H109V16.7998Z" fill="#A6775E"/>
<path d="M109 7.2002H108.2V8.0002H109V7.2002Z" fill="#532417"/>
<path d="M109 13.5996H108.2V14.3996H109V13.5996Z" fill="#D3A791"/>
<path d="M109 20H108.2V20.8H109V20Z" fill="#A6775E"/>
<path d="M109 24H108.2V24.8H109V24Z" fill="#532417"/>
<path d="M109 5.59961H108.2V6.39961H109V5.59961Z" fill="#532417"/>
<path d="M109 12H108.2V12.8H109V12Z" fill="#D3A791"/>
<path d="M109 18.3994H108.2V19.1994H109V18.3994Z" fill="#A6775E"/>
<path d="M109 8.7998H108.2V9.5998H109V8.7998Z" fill="#D3A791"/>
<path d="M109 15.2002H108.2V16.0002H109V15.2002Z" fill="#D3A791"/>
<path d="M109 21.5996H108.2V22.3996H109V21.5996Z" fill="#A6775E"/>
<path d="M109 25.5996H108.2V26.3996H109V25.5996Z" fill="#8E624A"/>
<path d="M109 4.7998H108.2V5.5998H109V4.7998Z" fill="#532417"/>
<path d="M109 11.2002H108.2V12.0002H109V11.2002Z" fill="#D3A791"/>
<path d="M109 17.5996H108.2V18.3996H109V17.5996Z" fill="#A6775E"/>
<path d="M109 8H108.2V8.8H109V8Z" fill="#D3A791"/>
<path d="M109 14.3994H108.2V15.1994H109V14.3994Z" fill="#D3A791"/>
<path d="M109 20.7998H108.2V21.5998H109V20.7998Z" fill="#A6775E"/>
<path d="M109 24.7998H108.2V25.5998H109V24.7998Z" fill="#A6775E"/>
<path d="M109 6.39941H108.2V7.19941H109V6.39941Z" fill="#532417"/>
<path d="M109 12.7998H108.2V13.5998H109V12.7998Z" fill="#D3A791"/>
<path d="M109 19.2002H108.2V20.0002H109V19.2002Z" fill="#A6775E"/>
<path d="M109 23.2002H108.2V24.0002H109V23.2002Z" fill="#A6775E"/>
<path d="M109 9.59961H108.2V10.3996H109V9.59961Z" fill="#D3A791"/>
<path d="M109 16H108.2V16.8H109V16Z" fill="#D3A791"/>
<path d="M109 22.3994H108.2V23.1994H109V22.3994Z" fill="#A6775E"/>
<path d="M109 26.3994H108.2V27.1994H109V26.3994Z" fill="#7B3926"/>
<path d="M104.199 10.3994H103.399V11.1994H104.199V10.3994Z" fill="#BF947E"/>
<path d="M104.199 16.7998H103.399V17.5998H104.199V16.7998Z" fill="#8E624A"/>
<path d="M104.199 7.2002H103.399V8.0002H104.199V7.2002Z" fill="#7B3926"/>
<path d="M104.199 13.5996H103.399V14.3996H104.199V13.5996Z" fill="#BF947E"/>
<path d="M104.199 20H103.399V20.8H104.199V20Z" fill="#A6775E"/>
<path d="M104.199 24H103.399V24.8H104.199V24Z" fill="#8E624A"/>
<path d="M104.199 12H103.399V12.8H104.199V12Z" fill="#BF947E"/>
<path d="M104.199 18.3994H103.399V19.1994H104.199V18.3994Z" fill="#A6775E"/>
<path d="M104.199 8.7998H103.399V9.5998H104.199V8.7998Z" fill="#BF947E"/>
<path d="M104.199 15.2002H103.399V16.0002H104.199V15.2002Z" fill="#7B3926"/>
<path d="M104.199 21.5996H103.399V22.3996H104.199V21.5996Z" fill="#A6775E"/>
<path d="M104.199 25.5996H103.399V26.3996H104.199V25.5996Z" fill="#7B3926"/>
<path d="M104.199 11.2002H103.399V12.0002H104.199V11.2002Z" fill="#BF947E"/>
<path d="M104.199 17.5996H103.399V18.3996H104.199V17.5996Z" fill="#A6775E"/>
<path d="M104.199 8H103.399V8.8H104.199V8Z" fill="#BF947E"/>
<path d="M104.199 14.3994H103.399V15.1994H104.199V14.3994Z" fill="#BF947E"/>
<path d="M104.199 20.7998H103.399V21.5998H104.199V20.7998Z" fill="#A6775E"/>
<path d="M104.199 24.7998H103.399V25.5998H104.199V24.7998Z" fill="#8E624A"/>
<path d="M104.199 12.7998H103.399V13.5998H104.199V12.7998Z" fill="#BF947E"/>
<path d="M104.199 19.2002H103.399V20.0002H104.199V19.2002Z" fill="#A6775E"/>
<path d="M104.199 23.2002H103.399V24.0002H104.199V23.2002Z" fill="#A6775E"/>
<path d="M104.199 9.59961H103.399V10.3996H104.199V9.59961Z" fill="#BF947E"/>
<path d="M104.199 16H103.399V16.8H104.199V16Z" fill="#7B3926"/>
<path d="M104.199 22.3994H103.399V23.1994H104.199V22.3994Z" fill="#532417"/>
<path d="M105 10.3994H104.2V11.1994H105V10.3994Z" fill="#D3A791"/>
<path d="M105 16.7998H104.2V17.5998H105V16.7998Z" fill="#A6775E"/>
<path d="M105 7.2002H104.2V8.0002H105V7.2002Z" fill="#7B3926"/>
<path d="M105 13.5996H104.2V14.3996H105V13.5996Z" fill="#D3A791"/>
<path d="M105 20H104.2V20.8H105V20Z" fill="#7B3926"/>
<path d="M105 24H104.2V24.8H105V24Z" fill="#A6775E"/>
<path d="M105 12H104.2V12.8H105V12Z" fill="#D3A791"/>
<path d="M105 18.3994H104.2V19.1994H105V18.3994Z" fill="#A6775E"/>
<path d="M105 8.7998H104.2V9.5998H105V8.7998Z" fill="#BF947E"/>
<path d="M105 15.2002H104.2V16.0002H105V15.2002Z" fill="#BF947E"/>
<path d="M105 21.5996H104.2V22.3996H105V21.5996Z" fill="#A6775E"/>
<path d="M105 25.5996H104.2V26.3996H105V25.5996Z" fill="#8E624A"/>
<path d="M105 11.2002H104.2V12.0002H105V11.2002Z" fill="#D3A791"/>
<path d="M105 17.5996H104.2V18.3996H105V17.5996Z" fill="#A6775E"/>
<path d="M105 8H104.2V8.8H105V8Z" fill="#BF947E"/>
<path d="M105 14.3994H104.2V15.1994H105V14.3994Z" fill="#D3A791"/>
<path d="M105 20.7998H104.2V21.5998H105V20.7998Z" fill="#7B3926"/>
<path d="M105 24.7998H104.2V25.5998H105V24.7998Z" fill="#8E624A"/>
<path d="M105 12.7998H104.2V13.5998H105V12.7998Z" fill="#D3A791"/>
<path d="M105 19.2002H104.2V20.0002H105V19.2002Z" fill="#A6775E"/>
<path d="M105 23.2002H104.2V24.0002H105V23.2002Z" fill="#532417"/>
<path d="M105 9.59961H104.2V10.3996H105V9.59961Z" fill="#D3A791"/>
<path d="M105 16H104.2V16.8H105V16Z" fill="#7B3926"/>
<path d="M105 22.3994H104.2V23.1994H105V22.3994Z" fill="#A6775E"/>
<path d="M105 26.3994H104.2V27.1994H105V26.3994Z" fill="#7B3926"/>
<path d="M100.199 10.3994H99.3994V11.1994H100.199V10.3994Z" fill="#7B3926"/>
<path d="M100.199 7.2002H99.3994V8.0002H100.199V7.2002Z" fill="#D3A791"/>
<path d="M100.199 20H99.3994V20.8H100.199V20Z" fill="#8E624A"/>
<path d="M100.199 5.59961H99.3994V6.39961H100.199V5.59961Z" fill="#7B3926"/>
<path d="M100.199 18.3994H99.3994V19.1994H100.199V18.3994Z" fill="#7B3926"/>
<path d="M100.199 8.7998H99.3994V9.5998H100.199V8.7998Z" fill="#8E624A"/>
<path d="M100.199 21.5996H99.3994V22.3996H100.199V21.5996Z" fill="#8E624A"/>
<path d="M100.199 17.5996H99.3994V18.3996H100.199V17.5996Z" fill="#7B3926"/>
<path d="M100.199 8H99.3994V8.8H100.199V8Z" fill="#D3A791"/>
<path d="M100.199 20.7998H99.3994V21.5998H100.199V20.7998Z" fill="#8E624A"/>
<path d="M100.199 6.39941H99.3994V7.19941H100.199V6.39941Z" fill="#D3A791"/>
<path d="M100.199 19.2002H99.3994V20.0002H100.199V19.2002Z" fill="#8E624A"/>
<path d="M100.199 23.2002H99.3994V24.0002H100.199V23.2002Z" fill="#7B3926"/>
<path d="M100.199 9.59961H99.3994V10.3996H100.199V9.59961Z" fill="#7B3926"/>
<path d="M100.199 22.3994H99.3994V23.1994H100.199V22.3994Z" fill="#8E624A"/>
<path d="M108.199 10.3994H107.399V11.1994H108.199V10.3994Z" fill="#D3A791"/>
<path d="M108.199 16.7998H107.399V17.5998H108.199V16.7998Z" fill="#A6775E"/>
<path d="M108.199 7.2002H107.399V8.0002H108.199V7.2002Z" fill="#532417"/>
<path d="M108.199 13.5996H107.399V14.3996H108.199V13.5996Z" fill="#D3A791"/>
<path d="M108.199 20H107.399V20.8H108.199V20Z" fill="#7B3926"/>
<path d="M108.199 24H107.399V24.8H108.199V24Z" fill="#532417"/>
<path d="M108.199 5.59961H107.399V6.39961H108.199V5.59961Z" fill="#7B3926"/>
<path d="M108.199 12H107.399V12.8H108.199V12Z" fill="#D3A791"/>
<path d="M108.199 18.3994H107.399V19.1994H108.199V18.3994Z" fill="#7B3926"/>
<path d="M108.199 8.7998H107.399V9.5998H108.199V8.7998Z" fill="#D3A791"/>
<path d="M108.199 15.2002H107.399V16.0002H108.199V15.2002Z" fill="#D3A791"/>
<path d="M108.199 21.5996H107.399V22.3996H108.199V21.5996Z" fill="#7B3926"/>
<path d="M108.199 25.5996H107.399V26.3996H108.199V25.5996Z" fill="#8E624A"/>
<path d="M108.199 4.7998H107.399V5.5998H108.199V4.7998Z" fill="#532417"/>
<path d="M108.199 11.2002H107.399V12.0002H108.199V11.2002Z" fill="#D3A791"/>
<path d="M108.199 17.5996H107.399V18.3996H108.199V17.5996Z" fill="#A6775E"/>
<path d="M108.199 8H107.399V8.8H108.199V8Z" fill="#532417"/>
<path d="M108.199 14.3994H107.399V15.1994H108.199V14.3994Z" fill="#D3A791"/>
<path d="M108.199 20.7998H107.399V21.5998H108.199V20.7998Z" fill="#7B3926"/>
<path d="M108.199 24.7998H107.399V25.5998H108.199V24.7998Z" fill="#A6775E"/>
<path d="M108.199 6.39941H107.399V7.19941H108.199V6.39941Z" fill="#532417"/>
<path d="M108.199 12.7998H107.399V13.5998H108.199V12.7998Z" fill="#D3A791"/>
<path d="M108.199 19.2002H107.399V20.0002H108.199V19.2002Z" fill="#7B3926"/>
<path d="M108.199 23.2002H107.399V24.0002H108.199V23.2002Z" fill="#A6775E"/>
<path d="M108.199 9.59961H107.399V10.3996H108.199V9.59961Z" fill="#D3A791"/>
<path d="M108.199 16H107.399V16.8H108.199V16Z" fill="#8E624A"/>
<path d="M108.199 22.3994H107.399V23.1994H108.199V22.3994Z" fill="#A6775E"/>
<path d="M108.199 26.3994H107.399V27.1994H108.199V26.3994Z" fill="#7B3926"/>
<path d="M103.4 10.3994H102.6V11.1994H103.4V10.3994Z" fill="#BF947E"/>
<path d="M103.4 16.7998H102.6V17.5998H103.4V16.7998Z" fill="#8E624A"/>
<path d="M103.4 7.2002H102.6V8.0002H103.4V7.2002Z" fill="#7B3926"/>
<path d="M103.4 13.5996H102.6V14.3996H103.4V13.5996Z" fill="#BF947E"/>
<path d="M103.4 20H102.6V20.8H103.4V20Z" fill="#A6775E"/>
<path d="M103.4 24H102.6V24.8H103.4V24Z" fill="#8E624A"/>
<path d="M103.4 12H102.6V12.8H103.4V12Z" fill="#BF947E"/>
<path d="M103.4 18.3994H102.6V19.1994H103.4V18.3994Z" fill="#A6775E"/>
<path d="M103.4 8.7998H102.6V9.5998H103.4V8.7998Z" fill="#7B3926"/>
<path d="M103.4 15.2002H102.6V16.0002H103.4V15.2002Z" fill="#7B3926"/>
<path d="M103.4 21.5996H102.6V22.3996H103.4V21.5996Z" fill="#A6775E"/>
<path d="M103.4 25.5996H102.6V26.3996H103.4V25.5996Z" fill="#7B3926"/>
<path d="M103.4 11.2002H102.6V12.0002H103.4V11.2002Z" fill="#BF947E"/>
<path d="M103.4 17.5996H102.6V18.3996H103.4V17.5996Z" fill="#8E624A"/>
<path d="M103.4 8H102.6V8.8H103.4V8Z" fill="#7B3926"/>
<path d="M103.4 14.3994H102.6V15.1994H103.4V14.3994Z" fill="#BF947E"/>
<path d="M103.4 20.7998H102.6V21.5998H103.4V20.7998Z" fill="#A6775E"/>
<path d="M103.4 24.7998H102.6V25.5998H103.4V24.7998Z" fill="#8E624A"/>
<path d="M103.4 6.39941H102.6V7.19941H103.4V6.39941Z" fill="#7B3926"/>
<path d="M103.4 12.7998H102.6V13.5998H103.4V12.7998Z" fill="#BF947E"/>
<path d="M103.4 19.2002H102.6V20.0002H103.4V19.2002Z" fill="#A6775E"/>
<path d="M103.4 23.2002H102.6V24.0002H103.4V23.2002Z" fill="#A6775E"/>
<path d="M103.4 9.59961H102.6V10.3996H103.4V9.59961Z" fill="#7B3926"/>
<path d="M103.4 16H102.6V16.8H103.4V16Z" fill="#7B3926"/>
<path d="M103.4 22.3994H102.6V23.1994H103.4V22.3994Z" fill="#532417"/>
<path d="M106.6 10.3994H105.8V11.1994H106.6V10.3994Z" fill="#7B3926"/>
<path d="M106.6 16.7998H105.8V17.5998H106.6V16.7998Z" fill="#A6775E"/>
<path d="M106.6 7.2002H105.8V8.0002H106.6V7.2002Z" fill="#BF947E"/>
<path d="M106.6 13.5996H105.8V14.3996H106.6V13.5996Z" fill="#7B3926"/>
<path d="M106.6 20H105.8V20.8H106.6V20Z" fill="#532417"/>
<path d="M106.6 24H105.8V24.8H106.6V24Z" fill="#532417"/>
<path d="M106.6 12H105.8V12.8H106.6V12Z" fill="#7B3926"/>
<path d="M106.6 18.3994H105.8V19.1994H106.6V18.3994Z" fill="#7B3926"/>
<path d="M106.6 8.7998H105.8V9.5998H106.6V8.7998Z" fill="#532417"/>
<path d="M106.6 15.2002H105.8V16.0002H106.6V15.2002Z" fill="#D3A791"/>
<path d="M106.6 21.5996H105.8V22.3996H106.6V21.5996Z" fill="#7B3926"/>
<path d="M106.6 25.5996H105.8V26.3996H106.6V25.5996Z" fill="#8E624A"/>
<path d="M106.6 11.2002H105.8V12.0002H106.6V11.2002Z" fill="#CDCDCD"/>
<path d="M106.6 17.5996H105.8V18.3996H106.6V17.5996Z" fill="#A6775E"/>
<path d="M106.6 8H105.8V8.8H106.6V8Z" fill="#532417"/>
<path d="M106.6 14.3994H105.8V15.1994H106.6V14.3994Z" fill="#D3A791"/>
<path d="M106.6 20.7998H105.8V21.5998H106.6V20.7998Z" fill="#7B3926"/>
<path d="M106.6 24.7998H105.8V25.5998H106.6V24.7998Z" fill="#A6775E"/>
<path d="M106.6 6.39941H105.8V7.19941H106.6V6.39941Z" fill="#7B3926"/>
<path d="M106.6 12.7998H105.8V13.5998H106.6V12.7998Z" fill="#7B3926"/>
<path d="M106.6 19.2002H105.8V20.0002H106.6V19.2002Z" fill="#7B3926"/>
<path d="M106.6 23.2002H105.8V24.0002H106.6V23.2002Z" fill="#532417"/>
<path d="M106.6 9.59961H105.8V10.3996H106.6V9.59961Z" fill="#D3A791"/>
<path d="M106.6 16H105.8V16.8H106.6V16Z" fill="#8E624A"/>
<path d="M106.6 22.3994H105.8V23.1994H106.6V22.3994Z" fill="#A6775E"/>
<path d="M106.6 26.3994H105.8V27.1994H106.6V26.3994Z" fill="#7B3926"/>
<path d="M101.8 10.3994H101V11.1994H101.8V10.3994Z" fill="#8E624A"/>
<path d="M101.8 16.7998H101V17.5998H101.8V16.7998Z" fill="#7B3926"/>
<path d="M101.8 7.2002H101V8.0002H101.8V7.2002Z" fill="#D3A791"/>
<path d="M101.8 20H101V20.8H101.8V20Z" fill="#A6775E"/>
<path d="M101.8 24H101V24.8H101.8V24Z" fill="#8E624A"/>
<path d="M101.8 12H101V12.8H101.8V12Z" fill="#8E624A"/>
<path d="M101.8 18.3994H101V19.1994H101.8V18.3994Z" fill="#8E624A"/>
<path d="M101.8 8.7998H101V9.5998H101.8V8.7998Z" fill="#D3A791"/>
<path d="M101.8 21.5996H101V22.3996H101.8V21.5996Z" fill="#A6775E"/>
<path d="M101.8 11.2002H101V12.0002H101.8V11.2002Z" fill="#8E624A"/>
<path d="M101.8 17.5996H101V18.3996H101.8V17.5996Z" fill="#8E624A"/>
<path d="M101.8 8H101V8.8H101.8V8Z" fill="#D3A791"/>
<path d="M101.8 20.7998H101V21.5998H101.8V20.7998Z" fill="#A6775E"/>
<path d="M101.8 24.7998H101V25.5998H101.8V24.7998Z" fill="#7B3926"/>
<path d="M101.8 6.39941H101V7.19941H101.8V6.39941Z" fill="#7B3926"/>
<path d="M101.8 12.7998H101V13.5998H101.8V12.7998Z" fill="#7B3926"/>
<path d="M101.8 19.2002H101V20.0002H101.8V19.2002Z" fill="#8E624A"/>
<path d="M101.8 23.2002H101V24.0002H101.8V23.2002Z" fill="#8E624A"/>
<path d="M101.8 9.59961H101V10.3996H101.8V9.59961Z" fill="#D3A791"/>
<path d="M101.8 16H101V16.8H101.8V16Z" fill="#7B3926"/>
<path d="M101.8 22.3994H101V23.1994H101.8V22.3994Z" fill="#8E624A"/>
<path d="M99.3996 7.2002H98.5996V8.0002H99.3996V7.2002Z" fill="#D3A791"/>
<path d="M99.3996 20H98.5996V20.8H99.3996V20Z" fill="#7B3926"/>
<path d="M99.3996 5.59961H98.5996V6.39961H99.3996V5.59961Z" fill="#7B3926"/>
<path d="M99.3996 18.3994H98.5996V19.1994H99.3996V18.3994Z" fill="#7B3926"/>
<path d="M99.3996 8.7998H98.5996V9.5998H99.3996V8.7998Z" fill="#7B3926"/>
<path d="M99.3996 21.5996H98.5996V22.3996H99.3996V21.5996Z" fill="#7B3926"/>
<path d="M99.3996 8H98.5996V8.8H99.3996V8Z" fill="#8E624A"/>
<path d="M99.3996 20.7998H98.5996V21.5998H99.3996V20.7998Z" fill="#7B3926"/>
<path d="M99.3996 6.39941H98.5996V7.19941H99.3996V6.39941Z" fill="#7B3926"/>
<path d="M99.3996 19.2002H98.5996V20.0002H99.3996V19.2002Z" fill="#7B3926"/>
<path d="M99.3996 9.59961H98.5996V10.3996H99.3996V9.59961Z" fill="#7B3926"/>
<path d="M99.3996 22.3994H98.5996V23.1994H99.3996V22.3994Z" fill="#7B3926"/>
<path d="M111.4 10.3994H110.6V11.1994H111.4V10.3994Z" fill="#7B3926"/>
<path d="M111.4 16.7998H110.6V17.5998H111.4V16.7998Z" fill="#A6775E"/>
<path d="M111.4 7.2002H110.6V8.0002H111.4V7.2002Z" fill="#532417"/>
<path d="M111.4 13.5996H110.6V14.3996H111.4V13.5996Z" fill="#7B3926"/>
<path d="M111.4 20H110.6V20.8H111.4V20Z" fill="#532417"/>
<path d="M111.4 24H110.6V24.8H111.4V24Z" fill="#532417"/>
<path d="M111.4 5.59961H110.6V6.39961H111.4V5.59961Z" fill="#7B3926"/>
<path d="M111.4 12H110.6V12.8H111.4V12Z" fill="#7B3926"/>
<path d="M111.4 18.3994H110.6V19.1994H111.4V18.3994Z" fill="#7B3926"/>
<path d="M111.4 8.7998H110.6V9.5998H111.4V8.7998Z" fill="#532417"/>
<path d="M111.4 15.2002H110.6V16.0002H111.4V15.2002Z" fill="#D3A791"/>
<path d="M111.4 21.5996H110.6V22.3996H111.4V21.5996Z" fill="#7B3926"/>
<path d="M111.4 25.5996H110.6V26.3996H111.4V25.5996Z" fill="#8E624A"/>
<path d="M111.4 11.2002H110.6V12.0002H111.4V11.2002Z" fill="#7B3926"/>
<path d="M111.4 17.5996H110.6V18.3996H111.4V17.5996Z" fill="#A6775E"/>
<path d="M111.4 8H110.6V8.8H111.4V8Z" fill="#532417"/>
<path d="M111.4 14.3994H110.6V15.1994H111.4V14.3994Z" fill="#D3A791"/>
<path d="M111.4 20.7998H110.6V21.5998H111.4V20.7998Z" fill="#532417"/>
<path d="M111.4 24.7998H110.6V25.5998H111.4V24.7998Z" fill="#A6775E"/>
<path d="M111.4 6.39941H110.6V7.19941H111.4V6.39941Z" fill="#532417"/>
<path d="M111.4 12.7998H110.6V13.5998H111.4V12.7998Z" fill="#7B3926"/>
<path d="M111.4 19.2002H110.6V20.0002H111.4V19.2002Z" fill="#532417"/>
<path d="M111.4 23.2002H110.6V24.0002H111.4V23.2002Z" fill="#A6775E"/>
<path d="M111.4 9.59961H110.6V10.3996H111.4V9.59961Z" fill="#D3A791"/>
<path d="M111.4 16H110.6V16.8H111.4V16Z" fill="#8E624A"/>
<path d="M111.4 22.3994H110.6V23.1994H111.4V22.3994Z" fill="#A6775E"/>
<path d="M111.4 26.3994H110.6V27.1994H111.4V26.3994Z" fill="#7B3926"/>
<path d="M116.2 10.3994H115.4V11.1994H116.2V10.3994Z" fill="#7B3926"/>
<path d="M116.2 16.7998H115.4V17.5998H116.2V16.7998Z" fill="#7B3926"/>
<path d="M116.2 7.2002H115.4V8.0002H116.2V7.2002Z" fill="#D3A791"/>
<path d="M116.2 13.5996H115.4V14.3996H116.2V13.5996Z" fill="#7B3926"/>
<path d="M116.2 20H115.4V20.8H116.2V20Z" fill="#A6775E"/>
<path d="M116.2 24H115.4V24.8H116.2V24Z" fill="#8E624A"/>
<path d="M116.2 12H115.4V12.8H116.2V12Z" fill="#7B3926"/>
<path d="M116.2 18.3994H115.4V19.1994H116.2V18.3994Z" fill="#8E624A"/>
<path d="M116.2 8.7998H115.4V9.5998H116.2V8.7998Z" fill="#D3A791"/>
<path d="M116.2 15.2002H115.4V16.0002H116.2V15.2002Z" fill="#7B3926"/>
<path d="M116.2 21.5996H115.4V22.3996H116.2V21.5996Z" fill="#532417"/>
<path d="M116.2 25.5996H115.4V26.3996H116.2V25.5996Z" fill="#7B3926"/>
<path d="M116.2 11.2002H115.4V12.0002H116.2V11.2002Z" fill="#7B3926"/>
<path d="M116.2 17.5996H115.4V18.3996H116.2V17.5996Z" fill="#8E624A"/>
<path d="M116.2 8H115.4V8.8H116.2V8Z" fill="#D3A791"/>
<path d="M116.2 14.3994H115.4V15.1994H116.2V14.3994Z" fill="#7B3926"/>
<path d="M116.2 20.7998H115.4V21.5998H116.2V20.7998Z" fill="#A6775E"/>
<path d="M116.2 24.7998H115.4V25.5998H116.2V24.7998Z" fill="#8E624A"/>
<path d="M116.2 6.39941H115.4V7.19941H116.2V6.39941Z" fill="#7B3926"/>
<path d="M116.2 12.7998H115.4V13.5998H116.2V12.7998Z" fill="#7B3926"/>
<path d="M116.2 19.2002H115.4V20.0002H116.2V19.2002Z" fill="#A6775E"/>
<path d="M116.2 23.2002H115.4V24.0002H116.2V23.2002Z" fill="#A6775E"/>
<path d="M116.2 9.59961H115.4V10.3996H116.2V9.59961Z" fill="#7B3926"/>
<path d="M116.2 16H115.4V16.8H116.2V16Z" fill="#7B3926"/>
<path d="M116.2 22.3994H115.4V23.1994H116.2V22.3994Z" fill="#A6775E"/>
<path d="M113 10.3994H112.2V11.1994H113V10.3994Z" fill="#7B3926"/>
<path d="M113 16.7998H112.2V17.5998H113V16.7998Z" fill="#A6775E"/>
<path d="M113 7.2002H112.2V8.0002H113V7.2002Z" fill="#BF947E"/>
<path d="M113 13.5996H112.2V14.3996H113V13.5996Z" fill="#7B3926"/>
<path d="M113 20H112.2V20.8H113V20Z" fill="#532417"/>
<path d="M113 24H112.2V24.8H113V24Z" fill="#A6775E"/>
<path d="M113 12H112.2V12.8H113V12Z" fill="#7B3926"/>
<path d="M113 18.3994H112.2V19.1994H113V18.3994Z" fill="#A6775E"/>
<path d="M113 8.7998H112.2V9.5998H113V8.7998Z" fill="#532417"/>
<path d="M113 15.2002H112.2V16.0002H113V15.2002Z" fill="#BF947E"/>
<path d="M113 21.5996H112.2V22.3996H113V21.5996Z" fill="#A6775E"/>
<path d="M113 25.5996H112.2V26.3996H113V25.5996Z" fill="#8E624A"/>
<path d="M113 11.2002H112.2V12.0002H113V11.2002Z" fill="#7B3926"/>
<path d="M113 17.5996H112.2V18.3996H113V17.5996Z" fill="#A6775E"/>
<path d="M113 8H112.2V8.8H113V8Z" fill="#BF947E"/>
<path d="M113 14.3994H112.2V15.1994H113V14.3994Z" fill="#D3A791"/>
<path d="M113 20.7998H112.2V21.5998H113V20.7998Z" fill="#7B3926"/>
<path d="M113 24.7998H112.2V25.5998H113V24.7998Z" fill="#8E624A"/>
<path d="M113 6.39941H112.2V7.19941H113V6.39941Z" fill="#7B3926"/>
<path d="M113 12.7998H112.2V13.5998H113V12.7998Z" fill="#7B3926"/>
<path d="M113 19.2002H112.2V20.0002H113V19.2002Z" fill="#7B3926"/>
<path d="M113 23.2002H112.2V24.0002H113V23.2002Z" fill="#532417"/>
<path d="M113 9.59961H112.2V10.3996H113V9.59961Z" fill="#D3A791"/>
<path d="M113 16H112.2V16.8H113V16Z" fill="#8E624A"/>
<path d="M113 22.3994H112.2V23.1994H113V22.3994Z" fill="#A6775E"/>
<path d="M113 26.3994H112.2V27.1994H113V26.3994Z" fill="#7B3926"/>
<path d="M117.8 10.3994H117V11.1994H117.8V10.3994Z" fill="#7B3926"/>
<path d="M117.8 16.7998H117V17.5998H117.8V16.7998Z" fill="#7B3926"/>
<path d="M117.8 7.2002H117V8.0002H117.8V7.2002Z" fill="#D3A791"/>
<path d="M117.8 20H117V20.8H117.8V20Z" fill="#8E624A"/>
<path d="M117.8 24H117V24.8H117.8V24Z" fill="#7B3926"/>
<path d="M117.8 5.59961H117V6.39961H117.8V5.59961Z" fill="#7B3926"/>
<path d="M117.8 12H117V12.8H117.8V12Z" fill="#7B3926"/>
<path d="M117.8 18.3994H117V19.1994H117.8V18.3994Z" fill="#8E624A"/>
<path d="M117.8 8.7998H117V9.5998H117.8V8.7998Z" fill="#8E624A"/>
<path d="M117.8 21.5996H117V22.3996H117.8V21.5996Z" fill="#8E624A"/>
<path d="M117.8 11.2002H117V12.0002H117.8V11.2002Z" fill="#7B3926"/>
<path d="M117.8 17.5996H117V18.3996H117.8V17.5996Z" fill="#7B3926"/>
<path d="M117.8 8H117V8.8H117.8V8Z" fill="#D3A791"/>
<path d="M117.8 20.7998H117V21.5998H117.8V20.7998Z" fill="#8E624A"/>
<path d="M117.8 24.7998H117V25.5998H117.8V24.7998Z" fill="#7B3926"/>
<path d="M117.8 6.39941H117V7.19941H117.8V6.39941Z" fill="#7B3926"/>
<path d="M117.8 19.2002H117V20.0002H117.8V19.2002Z" fill="#8E624A"/>
<path d="M117.8 23.2002H117V24.0002H117.8V23.2002Z" fill="#8E624A"/>
<path d="M117.8 9.59961H117V10.3996H117.8V9.59961Z" fill="#8E624A"/>
<path d="M117.8 22.3994H117V23.1994H117.8V22.3994Z" fill="#8E624A"/>
<path d="M120.2 7.2002H119.4V8.0002H120.2V7.2002Z" fill="#7B3926"/>
<path d="M120.2 8.7998H119.4V9.5998H120.2V8.7998Z" fill="#7B3926"/>
<path d="M120.2 8H119.4V8.8H120.2V8Z" fill="#7B3926"/>
<path d="M120.2 6.39941H119.4V7.19941H120.2V6.39941Z" fill="#7B3926"/>
<path d="M109.8 10.3994H109V11.1994H109.8V10.3994Z" fill="#D3A791"/>
<path d="M109.8 16.7998H109V17.5998H109.8V16.7998Z" fill="#A6775E"/>
<path d="M109.8 7.2002H109V8.0002H109.8V7.2002Z" fill="#532417"/>
<path d="M109.8 13.5996H109V14.3996H109.8V13.5996Z" fill="#D3A791"/>
<path d="M109.8 20H109V20.8H109.8V20Z" fill="#A6775E"/>
<path d="M109.8 24H109V24.8H109.8V24Z" fill="#532417"/>
<path d="M109.8 5.59961H109V6.39961H109.8V5.59961Z" fill="#532417"/>
<path d="M109.8 12H109V12.8H109.8V12Z" fill="#D3A791"/>
<path d="M109.8 18.3994H109V19.1994H109.8V18.3994Z" fill="#A6775E"/>
<path d="M109.8 8.7998H109V9.5998H109.8V8.7998Z" fill="#D3A791"/>
<path d="M109.8 15.2002H109V16.0002H109.8V15.2002Z" fill="#D3A791"/>
<path d="M109.8 21.5996H109V22.3996H109.8V21.5996Z" fill="#A6775E"/>
<path d="M109.8 25.5996H109V26.3996H109.8V25.5996Z" fill="#8E624A"/>
<path d="M109.8 4.7998H109V5.5998H109.8V4.7998Z" fill="#532417"/>
<path d="M109.8 11.2002H109V12.0002H109.8V11.2002Z" fill="#D3A791"/>
<path d="M109.8 17.5996H109V18.3996H109.8V17.5996Z" fill="#A6775E"/>
<path d="M109.8 8H109V8.8H109.8V8Z" fill="#D3A791"/>
<path d="M109.8 14.3994H109V15.1994H109.8V14.3994Z" fill="#D3A791"/>
<path d="M109.8 20.7998H109V21.5998H109.8V20.7998Z" fill="#A6775E"/>
<path d="M109.8 24.7998H109V25.5998H109.8V24.7998Z" fill="#A6775E"/>
<path d="M109.8 6.39941H109V7.19941H109.8V6.39941Z" fill="#532417"/>
<path d="M109.8 12.7998H109V13.5998H109.8V12.7998Z" fill="#D3A791"/>
<path d="M109.8 19.2002H109V20.0002H109.8V19.2002Z" fill="#A6775E"/>
<path d="M109.8 23.2002H109V24.0002H109.8V23.2002Z" fill="#A6775E"/>
<path d="M109.8 9.59961H109V10.3996H109.8V9.59961Z" fill="#D3A791"/>
<path d="M109.8 16H109V16.8H109.8V16Z" fill="#D3A791"/>
<path d="M109.8 22.3994H109V23.1994H109.8V22.3994Z" fill="#A6775E"/>
<path d="M109.8 26.3994H109V27.1994H109.8V26.3994Z" fill="#7B3926"/>
<path d="M114.6 10.3994H113.8V11.1994H114.6V10.3994Z" fill="#BF947E"/>
<path d="M114.6 16.7998H113.8V17.5998H114.6V16.7998Z" fill="#8E624A"/>
<path d="M114.6 7.2002H113.8V8.0002H114.6V7.2002Z" fill="#7B3926"/>
<path d="M114.6 13.5996H113.8V14.3996H114.6V13.5996Z" fill="#BF947E"/>
<path d="M114.6 20H113.8V20.8H114.6V20Z" fill="#A6775E"/>
<path d="M114.6 24H113.8V24.8H114.6V24Z" fill="#8E624A"/>
<path d="M114.6 12H113.8V12.8H114.6V12Z" fill="#BF947E"/>
<path d="M114.6 18.3994H113.8V19.1994H114.6V18.3994Z" fill="#A6775E"/>
<path d="M114.6 8.7998H113.8V9.5998H114.6V8.7998Z" fill="#BF947E"/>
<path d="M114.6 15.2002H113.8V16.0002H114.6V15.2002Z" fill="#7B3926"/>
<path d="M114.6 21.5996H113.8V22.3996H114.6V21.5996Z" fill="#A6775E"/>
<path d="M114.6 25.5996H113.8V26.3996H114.6V25.5996Z" fill="#7B3926"/>
<path d="M114.6 11.2002H113.8V12.0002H114.6V11.2002Z" fill="#BF947E"/>
<path d="M114.6 17.5996H113.8V18.3996H114.6V17.5996Z" fill="#A6775E"/>
<path d="M114.6 8H113.8V8.8H114.6V8Z" fill="#BF947E"/>
<path d="M114.6 14.3994H113.8V15.1994H114.6V14.3994Z" fill="#BF947E"/>
<path d="M114.6 20.7998H113.8V21.5998H114.6V20.7998Z" fill="#A6775E"/>
<path d="M114.6 24.7998H113.8V25.5998H114.6V24.7998Z" fill="#8E624A"/>
<path d="M114.6 12.7998H113.8V13.5998H114.6V12.7998Z" fill="#BF947E"/>
<path d="M114.6 19.2002H113.8V20.0002H114.6V19.2002Z" fill="#A6775E"/>
<path d="M114.6 23.2002H113.8V24.0002H114.6V23.2002Z" fill="#A6775E"/>
<path d="M114.6 9.59961H113.8V10.3996H114.6V9.59961Z" fill="#BF947E"/>
<path d="M114.6 16H113.8V16.8H114.6V16Z" fill="#7B3926"/>
<path d="M114.6 22.3994H113.8V23.1994H114.6V22.3994Z" fill="#532417"/>
<path d="M113.8 10.3994H113V11.1994H113.8V10.3994Z" fill="#D3A791"/>
<path d="M113.8 16.7998H113V17.5998H113.8V16.7998Z" fill="#A6775E"/>
<path d="M113.8 7.2002H113V8.0002H113.8V7.2002Z" fill="#7B3926"/>
<path d="M113.8 13.5996H113V14.3996H113.8V13.5996Z" fill="#D3A791"/>
<path d="M113.8 20H113V20.8H113.8V20Z" fill="#7B3926"/>
<path d="M113.8 24H113V24.8H113.8V24Z" fill="#A6775E"/>
<path d="M113.8 12H113V12.8H113.8V12Z" fill="#D3A791"/>
<path d="M113.8 18.3994H113V19.1994H113.8V18.3994Z" fill="#A6775E"/>
<path d="M113.8 8.7998H113V9.5998H113.8V8.7998Z" fill="#BF947E"/>
<path d="M113.8 15.2002H113V16.0002H113.8V15.2002Z" fill="#BF947E"/>
<path d="M113.8 21.5996H113V22.3996H113.8V21.5996Z" fill="#A6775E"/>
<path d="M113.8 25.5996H113V26.3996H113.8V25.5996Z" fill="#8E624A"/>
<path d="M113.8 11.2002H113V12.0002H113.8V11.2002Z" fill="#D3A791"/>
<path d="M113.8 17.5996H113V18.3996H113.8V17.5996Z" fill="#A6775E"/>
<path d="M113.8 8H113V8.8H113.8V8Z" fill="#BF947E"/>
<path d="M113.8 14.3994H113V15.1994H113.8V14.3994Z" fill="#D3A791"/>
<path d="M113.8 20.7998H113V21.5998H113.8V20.7998Z" fill="#7B3926"/>
<path d="M113.8 24.7998H113V25.5998H113.8V24.7998Z" fill="#8E624A"/>
<path d="M113.8 12.7998H113V13.5998H113.8V12.7998Z" fill="#D3A791"/>
<path d="M113.8 19.2002H113V20.0002H113.8V19.2002Z" fill="#A6775E"/>
<path d="M113.8 23.2002H113V24.0002H113.8V23.2002Z" fill="#532417"/>
<path d="M113.8 9.59961H113V10.3996H113.8V9.59961Z" fill="#D3A791"/>
<path d="M113.8 16H113V16.8H113.8V16Z" fill="#7B3926"/>
<path d="M113.8 22.3994H113V23.1994H113.8V22.3994Z" fill="#A6775E"/>
<path d="M113.8 26.3994H113V27.1994H113.8V26.3994Z" fill="#7B3926"/>
<path d="M118.6 10.3994H117.8V11.1994H118.6V10.3994Z" fill="#7B3926"/>
<path d="M118.6 7.2002H117.8V8.0002H118.6V7.2002Z" fill="#D3A791"/>
<path d="M118.6 20H117.8V20.8H118.6V20Z" fill="#8E624A"/>
<path d="M118.6 5.59961H117.8V6.39961H118.6V5.59961Z" fill="#7B3926"/>
<path d="M118.6 18.3994H117.8V19.1994H118.6V18.3994Z" fill="#7B3926"/>
<path d="M118.6 8.7998H117.8V9.5998H118.6V8.7998Z" fill="#8E624A"/>
<path d="M118.6 21.5996H117.8V22.3996H118.6V21.5996Z" fill="#8E624A"/>
<path d="M118.6 17.5996H117.8V18.3996H118.6V17.5996Z" fill="#7B3926"/>
<path d="M118.6 8H117.8V8.8H118.6V8Z" fill="#D3A791"/>
<path d="M118.6 20.7998H117.8V21.5998H118.6V20.7998Z" fill="#8E624A"/>
<path d="M118.6 6.39941H117.8V7.19941H118.6V6.39941Z" fill="#D3A791"/>
<path d="M118.6 19.2002H117.8V20.0002H118.6V19.2002Z" fill="#8E624A"/>
<path d="M118.6 23.2002H117.8V24.0002H118.6V23.2002Z" fill="#7B3926"/>
<path d="M118.6 9.59961H117.8V10.3996H118.6V9.59961Z" fill="#7B3926"/>
<path d="M118.6 22.3994H117.8V23.1994H118.6V22.3994Z" fill="#8E624A"/>
<path d="M110.6 10.3994H109.8V11.1994H110.6V10.3994Z" fill="#D3A791"/>
<path d="M110.6 16.7998H109.8V17.5998H110.6V16.7998Z" fill="#A6775E"/>
<path d="M110.6 7.2002H109.8V8.0002H110.6V7.2002Z" fill="#532417"/>
<path d="M110.6 13.5996H109.8V14.3996H110.6V13.5996Z" fill="#D3A791"/>
<path d="M110.6 20H109.8V20.8H110.6V20Z" fill="#7B3926"/>
<path d="M110.6 24H109.8V24.8H110.6V24Z" fill="#532417"/>
<path d="M110.6 5.59961H109.8V6.39961H110.6V5.59961Z" fill="#7B3926"/>
<path d="M110.6 12H109.8V12.8H110.6V12Z" fill="#D3A791"/>
<path d="M110.6 18.3994H109.8V19.1994H110.6V18.3994Z" fill="#7B3926"/>
<path d="M110.6 8.7998H109.8V9.5998H110.6V8.7998Z" fill="#D3A791"/>
<path d="M110.6 15.2002H109.8V16.0002H110.6V15.2002Z" fill="#D3A791"/>
<path d="M110.6 21.5996H109.8V22.3996H110.6V21.5996Z" fill="#7B3926"/>
<path d="M110.6 25.5996H109.8V26.3996H110.6V25.5996Z" fill="#8E624A"/>
<path d="M110.6 4.7998H109.8V5.5998H110.6V4.7998Z" fill="#532417"/>
<path d="M110.6 11.2002H109.8V12.0002H110.6V11.2002Z" fill="#D3A791"/>
<path d="M110.6 17.5996H109.8V18.3996H110.6V17.5996Z" fill="#A6775E"/>
<path d="M110.6 8H109.8V8.8H110.6V8Z" fill="#532417"/>
<path d="M110.6 14.3994H109.8V15.1994H110.6V14.3994Z" fill="#D3A791"/>
<path d="M110.6 20.7998H109.8V21.5998H110.6V20.7998Z" fill="#7B3926"/>
<path d="M110.6 24.7998H109.8V25.5998H110.6V24.7998Z" fill="#A6775E"/>
<path d="M110.6 6.39941H109.8V7.19941H110.6V6.39941Z" fill="#532417"/>
<path d="M110.6 12.7998H109.8V13.5998H110.6V12.7998Z" fill="#D3A791"/>
<path d="M110.6 19.2002H109.8V20.0002H110.6V19.2002Z" fill="#7B3926"/>
<path d="M110.6 23.2002H109.8V24.0002H110.6V23.2002Z" fill="#A6775E"/>
<path d="M110.6 9.59961H109.8V10.3996H110.6V9.59961Z" fill="#D3A791"/>
<path d="M110.6 16H109.8V16.8H110.6V16Z" fill="#8E624A"/>
<path d="M110.6 22.3994H109.8V23.1994H110.6V22.3994Z" fill="#A6775E"/>
<path d="M110.6 26.3994H109.8V27.1994H110.6V26.3994Z" fill="#7B3926"/>
<path d="M115.4 10.3994H114.6V11.1994H115.4V10.3994Z" fill="#BF947E"/>
<path d="M115.4 16.7998H114.6V17.5998H115.4V16.7998Z" fill="#8E624A"/>
<path d="M115.4 7.2002H114.6V8.0002H115.4V7.2002Z" fill="#7B3926"/>
<path d="M115.4 13.5996H114.6V14.3996H115.4V13.5996Z" fill="#BF947E"/>
<path d="M115.4 20H114.6V20.8H115.4V20Z" fill="#A6775E"/>
<path d="M115.4 24H114.6V24.8H115.4V24Z" fill="#8E624A"/>
<path d="M115.4 12H114.6V12.8H115.4V12Z" fill="#BF947E"/>
<path d="M115.4 18.3994H114.6V19.1994H115.4V18.3994Z" fill="#A6775E"/>
<path d="M115.4 8.7998H114.6V9.5998H115.4V8.7998Z" fill="#7B3926"/>
<path d="M115.4 15.2002H114.6V16.0002H115.4V15.2002Z" fill="#7B3926"/>
<path d="M115.4 21.5996H114.6V22.3996H115.4V21.5996Z" fill="#A6775E"/>
<path d="M115.4 25.5996H114.6V26.3996H115.4V25.5996Z" fill="#7B3926"/>
<path d="M115.4 11.2002H114.6V12.0002H115.4V11.2002Z" fill="#BF947E"/>
<path d="M115.4 17.5996H114.6V18.3996H115.4V17.5996Z" fill="#8E624A"/>
<path d="M115.4 8H114.6V8.8H115.4V8Z" fill="#7B3926"/>
<path d="M115.4 14.3994H114.6V15.1994H115.4V14.3994Z" fill="#BF947E"/>
<path d="M115.4 20.7998H114.6V21.5998H115.4V20.7998Z" fill="#A6775E"/>
<path d="M115.4 24.7998H114.6V25.5998H115.4V24.7998Z" fill="#8E624A"/>
<path d="M115.4 6.39941H114.6V7.19941H115.4V6.39941Z" fill="#7B3926"/>
<path d="M115.4 12.7998H114.6V13.5998H115.4V12.7998Z" fill="#BF947E"/>
<path d="M115.4 19.2002H114.6V20.0002H115.4V19.2002Z" fill="#A6775E"/>
<path d="M115.4 23.2002H114.6V24.0002H115.4V23.2002Z" fill="#A6775E"/>
<path d="M115.4 9.59961H114.6V10.3996H115.4V9.59961Z" fill="#7B3926"/>
<path d="M115.4 16H114.6V16.8H115.4V16Z" fill="#7B3926"/>
<path d="M115.4 22.3994H114.6V23.1994H115.4V22.3994Z" fill="#532417"/>
<path d="M112.2 10.3994H111.4V11.1994H112.2V10.3994Z" fill="#7B3926"/>
<path d="M112.2 16.7998H111.4V17.5998H112.2V16.7998Z" fill="#A6775E"/>
<path d="M112.2 7.2002H111.4V8.0002H112.2V7.2002Z" fill="#BF947E"/>
<path d="M112.2 13.5996H111.4V14.3996H112.2V13.5996Z" fill="#7B3926"/>
<path d="M112.2 20H111.4V20.8H112.2V20Z" fill="#532417"/>
<path d="M112.2 24H111.4V24.8H112.2V24Z" fill="#532417"/>
<path d="M112.2 12H111.4V12.8H112.2V12Z" fill="#7B3926"/>
<path d="M112.2 18.3994H111.4V19.1994H112.2V18.3994Z" fill="#7B3926"/>
<path d="M112.2 8.7998H111.4V9.5998H112.2V8.7998Z" fill="#532417"/>
<path d="M112.2 15.2002H111.4V16.0002H112.2V15.2002Z" fill="#D3A791"/>
<path d="M112.2 21.5996H111.4V22.3996H112.2V21.5996Z" fill="#7B3926"/>
<path d="M112.2 25.5996H111.4V26.3996H112.2V25.5996Z" fill="#8E624A"/>
<path d="M112.2 11.2002H111.4V12.0002H112.2V11.2002Z" fill="#CDCDCD"/>
<path d="M112.2 17.5996H111.4V18.3996H112.2V17.5996Z" fill="#A6775E"/>
<path d="M112.2 8H111.4V8.8H112.2V8Z" fill="#532417"/>
<path d="M112.2 14.3994H111.4V15.1994H112.2V14.3994Z" fill="#D3A791"/>
<path d="M112.2 20.7998H111.4V21.5998H112.2V20.7998Z" fill="#7B3926"/>
<path d="M112.2 24.7998H111.4V25.5998H112.2V24.7998Z" fill="#A6775E"/>
<path d="M112.2 6.39941H111.4V7.19941H112.2V6.39941Z" fill="#7B3926"/>
<path d="M112.2 12.7998H111.4V13.5998H112.2V12.7998Z" fill="#7B3926"/>
<path d="M112.2 19.2002H111.4V20.0002H112.2V19.2002Z" fill="#7B3926"/>
<path d="M112.2 23.2002H111.4V24.0002H112.2V23.2002Z" fill="#532417"/>
<path d="M112.2 9.59961H111.4V10.3996H112.2V9.59961Z" fill="#D3A791"/>
<path d="M112.2 16H111.4V16.8H112.2V16Z" fill="#8E624A"/>
<path d="M112.2 22.3994H111.4V23.1994H112.2V22.3994Z" fill="#A6775E"/>
<path d="M112.2 26.3994H111.4V27.1994H112.2V26.3994Z" fill="#7B3926"/>
<path d="M117 10.3994H116.2V11.1994H117V10.3994Z" fill="#8E624A"/>
<path d="M117 16.7998H116.2V17.5998H117V16.7998Z" fill="#7B3926"/>
<path d="M117 7.2002H116.2V8.0002H117V7.2002Z" fill="#D3A791"/>
<path d="M117 20H116.2V20.8H117V20Z" fill="#A6775E"/>
<path d="M117 24H116.2V24.8H117V24Z" fill="#8E624A"/>
<path d="M117 12H116.2V12.8H117V12Z" fill="#8E624A"/>
<path d="M117 18.3994H116.2V19.1994H117V18.3994Z" fill="#8E624A"/>
<path d="M117 8.7998H116.2V9.5998H117V8.7998Z" fill="#D3A791"/>
<path d="M117 21.5996H116.2V22.3996H117V21.5996Z" fill="#A6775E"/>
<path d="M117 11.2002H116.2V12.0002H117V11.2002Z" fill="#8E624A"/>
<path d="M117 17.5996H116.2V18.3996H117V17.5996Z" fill="#8E624A"/>
<path d="M117 8H116.2V8.8H117V8Z" fill="#D3A791"/>
<path d="M117 20.7998H116.2V21.5998H117V20.7998Z" fill="#A6775E"/>
<path d="M117 24.7998H116.2V25.5998H117V24.7998Z" fill="#7B3926"/>
<path d="M117 6.39941H116.2V7.19941H117V6.39941Z" fill="#7B3926"/>
<path d="M117 12.7998H116.2V13.5998H117V12.7998Z" fill="#7B3926"/>
<path d="M117 19.2002H116.2V20.0002H117V19.2002Z" fill="#8E624A"/>
<path d="M117 23.2002H116.2V24.0002H117V23.2002Z" fill="#8E624A"/>
<path d="M117 9.59961H116.2V10.3996H117V9.59961Z" fill="#D3A791"/>
<path d="M117 16H116.2V16.8H117V16Z" fill="#7B3926"/>
<path d="M117 22.3994H116.2V23.1994H117V22.3994Z" fill="#8E624A"/>
<path d="M119.4 7.2002H118.6V8.0002H119.4V7.2002Z" fill="#D3A791"/>
<path d="M119.4 20H118.6V20.8H119.4V20Z" fill="#7B3926"/>
<path d="M119.4 5.59961H118.6V6.39961H119.4V5.59961Z" fill="#7B3926"/>
<path d="M119.4 18.3994H118.6V19.1994H119.4V18.3994Z" fill="#7B3926"/>
<path d="M119.4 8.7998H118.6V9.5998H119.4V8.7998Z" fill="#7B3926"/>
<path d="M119.4 21.5996H118.6V22.3996H119.4V21.5996Z" fill="#7B3926"/>
<path d="M119.4 8H118.6V8.8H119.4V8Z" fill="#8E624A"/>
<path d="M119.4 20.7998H118.6V21.5998H119.4V20.7998Z" fill="#7B3926"/>
<path d="M119.4 6.39941H118.6V7.19941H119.4V6.39941Z" fill="#7B3926"/>
<path d="M119.4 19.2002H118.6V20.0002H119.4V19.2002Z" fill="#7B3926"/>
<path d="M119.4 9.59961H118.6V10.3996H119.4V9.59961Z" fill="#7B3926"/>
<path d="M119.4 22.3994H118.6V23.1994H119.4V22.3994Z" fill="#7B3926"/>
</g>
<rect x="137.5" y="0.5" width="31" height="31" fill="#3A3A3A"/>
<rect x="137.5" y="0.5" width="31" height="31" stroke="#272727"/>
<path d="M148.714 12.7144V9.28585C148.714 8.81247 149.098 8.42871 149.572 8.42871H160.714C161.188 8.42871 161.572 8.81247 161.572 9.28585V20.4287C161.572 20.9021 161.188 21.2859 160.714 21.2859H157.286V24.7084C157.286 25.185 156.901 25.5716 156.423 25.5716H145.292C145.063 25.5718 144.843 25.481 144.681 25.3191C144.519 25.1571 144.428 24.9375 144.429 24.7084L144.431 13.5776C144.431 13.101 144.816 12.7144 145.294 12.7144H148.714ZM150.429 12.7144H156.423C156.899 12.7144 157.286 13.0993 157.286 13.5776V19.5716H159.857V10.143H150.429V12.7144ZM146.146 14.4287L146.143 23.8573H155.572V14.4287H146.146Z" fill="#5E5E5E"/>
<rect x="181.5" y="0.5" width="31" height="31" fill="#3A3A3A"/>
<rect x="181.5" y="0.5" width="31" height="31" stroke="#272727"/>
<path d="M192.714 12.7144V9.28585C192.714 8.81247 193.098 8.42871 193.572 8.42871H204.714C205.188 8.42871 205.572 8.81247 205.572 9.28585V20.4287C205.572 20.9021 205.188 21.2859 204.714 21.2859H201.286V24.7084C201.286 25.185 200.901 25.5716 200.423 25.5716H189.292C189.063 25.5718 188.843 25.481 188.681 25.3191C188.519 25.1571 188.428 24.9375 188.429 24.7084L188.431 13.5776C188.431 13.101 188.816 12.7144 189.294 12.7144H192.714ZM194.429 12.7144H200.423C200.899 12.7144 201.286 13.0993 201.286 13.5776V19.5716H203.857V10.143H194.429V12.7144ZM190.146 14.4287L190.143 23.8573H199.572V14.4287H190.146Z" fill="#5E5E5E"/>
<rect x="225.5" y="0.5" width="31" height="31" fill="#3A3A3A"/>
<rect x="225.5" y="0.5" width="31" height="31" stroke="#272727"/>
<path d="M236.714 12.7144V9.28585C236.714 8.81247 237.098 8.42871 237.572 8.42871H248.714C249.188 8.42871 249.572 8.81247 249.572 9.28585V20.4287C249.572 20.9021 249.188 21.2859 248.714 21.2859H245.286V24.7084C245.286 25.185 244.901 25.5716 244.423 25.5716H233.292C233.063 25.5718 232.843 25.481 232.681 25.3191C232.519 25.1571 232.428 24.9375 232.429 24.7084L232.431 13.5776C232.431 13.101 232.816 12.7144 233.294 12.7144H236.714ZM238.429 12.7144H244.423C244.899 12.7144 245.286 13.0993 245.286 13.5776V19.5716H247.857V10.143H238.429V12.7144ZM234.146 14.4287L234.143 23.8573H243.572V14.4287H234.146Z" fill="#5E5E5E"/>
<defs>
<clipPath id="clip0_1641_33832">
<rect width="24" height="24" fill="white" transform="translate(97 4)"/>
</clipPath>
</defs>
</svg>
